M48
;Layer_Color=9474304
;FILE_FORMAT=2:4
INCH,LZ
;TYPE=PLATED
T1F00S00C0.0118
T2F00S00C0.0157
T3F00S00C0.0400
%
T01
X01063Y01063
X012205
X01378
X01063Y012205
Y01378
Y015354
X01811Y014961
X018504Y011024
X020079
X021654
X023228
X024803
X033465Y017717
Y019685
Y024016
Y024803
Y030315
X03189
X030315
X02874
X027165
X025591
X024016
X022441
X020866
X019291
X017717
X016142
X017126Y027205
Y026929
Y026654
X018504
Y026929
Y027205
X018898Y023228
X019685
X020472
X02126
X020866Y024016
X020079
X021654
X023622Y022441
X024409
X024016Y021654
X023228
X023622Y020866
X024409
X025197
X025984
X026772
X027165Y020079
X026378
X025591
X024016
X022835Y020866
X024803Y021654
X025591
X026378
X025984Y024803
X026772
X027165Y025591
X026378
X025591
X019685Y01811
X020079Y017323
X019291
X018898Y016535
X019685
X020079Y015748
X019291
X018504
X014567Y030315
T02
X012323Y015276
X014882Y013189
X018504
X013071Y022165
X01315Y029173
T03
X033465Y012795
Y013795
Y020654
Y021654
Y022654
Y025772
Y026772
Y027772
X01063Y02815
Y02915
Y025394
Y024394
Y021219
Y020219
Y018224
Y017224
M30
