G04 Layer_Physical_Order=1*
G04 Layer_Color=255*
%FSLAX24Y24*%
%MOIN*%
G70*
G01*
G75*
%ADD10R,0.0394X0.0236*%
%ADD11R,0.0236X0.0394*%
%ADD12R,0.0965X0.1220*%
%ADD13R,0.1600X0.1380*%
%ADD14R,0.0276X0.0374*%
%ADD15R,0.0800X0.1690*%
%ADD16R,0.0374X0.0276*%
%ADD17R,0.1530X0.0910*%
%ADD18R,0.0750X0.1380*%
%ADD19R,0.0551X0.0709*%
%ADD20R,0.1083X0.0472*%
%ADD21R,0.0315X0.0315*%
%ADD22R,0.1575X0.1770*%
%ADD23R,0.0264X0.0354*%
%ADD24R,0.0354X0.0264*%
%ADD25R,0.0689X0.0551*%
%ADD26R,0.0540X0.0130*%
%ADD27R,0.0310X0.0280*%
%ADD28C,0.0118*%
%ADD29R,0.0680X0.0680*%
%ADD30C,0.0680*%
%ADD31C,0.0236*%
%ADD32C,0.0315*%
G36*
X13221Y29620D02*
X13109Y29446D01*
X13078Y29442D01*
X13011Y29414D01*
X12953Y29370D01*
X12909Y29312D01*
X12881Y29245D01*
X12872Y29173D01*
X12881Y29101D01*
X12909Y29034D01*
X12953Y28977D01*
X13011Y28932D01*
X13078Y28905D01*
X13150Y28895D01*
X13222Y28905D01*
X13289Y28932D01*
X13346Y28977D01*
X13390Y29034D01*
X13418Y29101D01*
X13428Y29173D01*
X13559Y29215D01*
X13749Y29232D01*
X13810D01*
Y29232D01*
X14310D01*
Y29347D01*
X15201D01*
X16408Y28140D01*
X16466Y28101D01*
X16535Y28087D01*
X16779D01*
X16830Y28006D01*
X16864Y27890D01*
X16857Y27881D01*
X16848Y27835D01*
Y26457D01*
X16857Y26411D01*
X16883Y26372D01*
X16899Y26361D01*
X16928Y26334D01*
X16998Y26183D01*
X17005Y26142D01*
X17006Y26139D01*
X17006Y24218D01*
X16845Y24057D01*
X16270Y24057D01*
X16183Y24144D01*
X16183Y26063D01*
X16174Y26109D01*
X16148Y26148D01*
X16030Y26266D01*
X16030Y26266D01*
X15991Y26292D01*
X15945Y26302D01*
X15945Y26302D01*
X14173Y26302D01*
X11457Y26302D01*
X11411Y26292D01*
X11372Y26266D01*
X11372Y26266D01*
X11135Y26030D01*
X11109Y25991D01*
X11100Y25945D01*
X11100Y25945D01*
X11100Y25107D01*
X10956Y24963D01*
X10197Y24963D01*
X10197Y24963D01*
X10069Y25072D01*
X10039Y25116D01*
Y28845D01*
X10216Y28912D01*
X10236Y28910D01*
X10303Y28823D01*
X10399Y28749D01*
X10510Y28703D01*
X10630Y28688D01*
X10749Y28703D01*
X10861Y28749D01*
X10957Y28823D01*
X11030Y28919D01*
X11076Y29030D01*
X11092Y29150D01*
X11076Y29269D01*
X11055Y29320D01*
X11516Y29780D01*
X13173D01*
X13221Y29620D01*
D02*
G37*
G36*
X21457Y28346D02*
Y26575D01*
X21260Y26378D01*
X18191Y26378D01*
X18191Y26772D01*
X18189Y26779D01*
Y26811D01*
X17718Y27282D01*
Y27835D01*
X17718Y27836D01*
X18146Y28264D01*
X18238Y28226D01*
Y28223D01*
X18770D01*
Y28543D01*
X21260D01*
X21457Y28346D01*
D02*
G37*
G36*
X34055Y28077D02*
X33878Y28009D01*
X33858Y28011D01*
X33791Y28098D01*
X33696Y28172D01*
X33584Y28218D01*
X33465Y28234D01*
X33345Y28218D01*
X33234Y28172D01*
X33138Y28098D01*
X33064Y28003D01*
X33044Y27952D01*
X31433D01*
X31364Y27939D01*
X31318Y27908D01*
X31231Y27927D01*
X31121Y27972D01*
Y28248D01*
X31066D01*
Y28465D01*
X31161D01*
Y29016D01*
X30610D01*
X30610Y29016D01*
X30571D01*
Y29016D01*
X30413Y29016D01*
X30020D01*
Y28465D01*
X30130D01*
X30143Y28445D01*
X30060Y28248D01*
X30060D01*
Y28134D01*
X29905Y28021D01*
X29727Y28095D01*
Y29528D01*
X29727Y29528D01*
X29718Y29574D01*
X29691Y29613D01*
X29691Y29613D01*
X29455Y29849D01*
X29416Y29875D01*
X29370Y29884D01*
X29370Y29884D01*
X18286Y29884D01*
X18240Y29875D01*
X18201Y29849D01*
X18184Y29823D01*
X17922D01*
X17786Y29823D01*
Y29823D01*
X17725D01*
Y29823D01*
X17225D01*
Y29708D01*
X17027D01*
Y29823D01*
X16662D01*
X16527Y29823D01*
X16330Y29823D01*
X16275D01*
Y29528D01*
X16216D01*
Y29469D01*
X15966D01*
Y29371D01*
X15769Y29290D01*
X15403Y29655D01*
X15345Y29694D01*
X15276Y29708D01*
X14310D01*
Y29823D01*
X14240D01*
X14227Y29887D01*
X14188Y29946D01*
X14045Y30088D01*
X13986Y30128D01*
X13917Y30141D01*
X11441D01*
X11372Y30128D01*
X11313Y30088D01*
X10800Y29575D01*
X10749Y29596D01*
X10630Y29612D01*
X10510Y29596D01*
X10399Y29550D01*
X10303Y29476D01*
X10236Y29389D01*
X10216Y29387D01*
X10039Y29454D01*
Y30512D01*
X34055D01*
Y28077D01*
D02*
G37*
G36*
X29370Y29764D02*
X29606Y29528D01*
Y26970D01*
X29409Y26970D01*
X29402Y26969D01*
X29104D01*
Y26823D01*
X28948Y26667D01*
X28848Y26708D01*
Y26806D01*
X28602D01*
Y26609D01*
X28638D01*
X28692Y26509D01*
X28686Y26501D01*
X28278D01*
Y26068D01*
X28747D01*
X28827Y25993D01*
X28831Y25977D01*
Y25846D01*
X28761D01*
Y25335D01*
X29182D01*
Y25846D01*
X29149D01*
X29127Y25946D01*
X29382Y26201D01*
X29606D01*
Y25846D01*
X29322D01*
Y25335D01*
X29606D01*
Y21852D01*
X29409Y21852D01*
X29402Y21850D01*
X29104D01*
Y21705D01*
X29053Y21654D01*
X28848D01*
Y21688D01*
X28543D01*
X28238D01*
Y21654D01*
X27992D01*
X27756Y21890D01*
Y22441D01*
Y26024D01*
X27402Y26378D01*
X27392D01*
Y26831D01*
X26152D01*
Y26378D01*
X21772Y26378D01*
X21575Y26575D01*
X21575Y28425D01*
X21339Y28661D01*
X18481Y28661D01*
X18352Y28790D01*
X18307Y28821D01*
X18253Y28831D01*
X17756D01*
Y29145D01*
X17786Y29232D01*
X17977D01*
Y29528D01*
X18036D01*
Y29587D01*
X18286D01*
Y29764D01*
X29370Y29764D01*
D02*
G37*
G36*
X33878Y27244D02*
X34055Y27067D01*
X34055Y26476D01*
X33878Y26299D01*
X31575Y26299D01*
X31496Y26220D01*
Y24606D01*
X31216D01*
X31137Y24656D01*
Y24902D01*
X30881D01*
Y25020D01*
X31137D01*
Y25266D01*
X31137D01*
X31082Y25335D01*
Y25846D01*
X30821D01*
X30748Y25919D01*
X30748Y26654D01*
X30276D01*
Y26890D01*
X30748Y26890D01*
X30901Y27043D01*
X30906Y27046D01*
X31104Y27244D01*
X33878Y27244D01*
D02*
G37*
G36*
X17282Y27835D02*
X17282Y26457D01*
X16968D01*
Y27835D01*
X17282D01*
Y27835D01*
D02*
G37*
G36*
X27271Y26378D02*
X27280Y26332D01*
X27307Y26293D01*
X27336Y26273D01*
X27635Y25974D01*
Y22441D01*
Y21890D01*
X27635Y21890D01*
X27645Y21844D01*
X27671Y21805D01*
X27671Y21805D01*
X27907Y21568D01*
X27907Y21568D01*
X27946Y21542D01*
X27992Y21533D01*
X27992Y21533D01*
X28087D01*
X28238Y21422D01*
X28238Y21294D01*
Y21225D01*
X28543D01*
Y21166D01*
X28602D01*
Y20898D01*
X28721Y20768D01*
Y20177D01*
X29086D01*
X29221Y20177D01*
X29418Y20177D01*
X29473D01*
Y20472D01*
X29532D01*
Y20531D01*
X29782D01*
Y20768D01*
X29539D01*
X29440Y20965D01*
X29499Y21043D01*
X29695D01*
Y21516D01*
X29549D01*
X29526Y21535D01*
X29409D01*
Y21772D01*
X29764Y21772D01*
X29803Y21732D01*
Y21694D01*
X29857Y21660D01*
X29990Y21526D01*
X30049Y21487D01*
X30118Y21473D01*
X30148D01*
Y21043D01*
X30171D01*
X30206Y20923D01*
X30060Y20768D01*
X30060D01*
Y20531D01*
X30310D01*
Y20413D01*
X30060D01*
Y20338D01*
X30044Y20148D01*
X30044Y19987D01*
Y19902D01*
X30300D01*
Y19843D01*
X30359D01*
Y19537D01*
X30428D01*
X30556Y19537D01*
X30753Y19537D01*
X31016D01*
X31019Y19524D01*
X31020Y19510D01*
X31024Y19501D01*
X31026Y19491D01*
X31033Y19480D01*
X31039Y19467D01*
X31046Y19460D01*
X31052Y19452D01*
X31063Y19444D01*
X31073Y19435D01*
X31153Y19386D01*
X31162Y19382D01*
X31170Y19377D01*
X31184Y19374D01*
X31197Y19369D01*
X31207Y19370D01*
X31216Y19368D01*
X31496D01*
X31542Y19377D01*
X31581Y19403D01*
X31607Y19442D01*
X31616Y19488D01*
Y20867D01*
X31810Y21061D01*
X33878Y21061D01*
X33878Y21061D01*
X34015Y20966D01*
X34055Y20921D01*
Y16978D01*
X34007Y16935D01*
X33858Y16853D01*
X33858Y16853D01*
X29577Y16853D01*
X27565Y18865D01*
X27526Y18891D01*
X27480Y18900D01*
X27480Y18900D01*
X26457D01*
X26411Y18891D01*
X26372Y18865D01*
X26345Y18826D01*
X26336Y18780D01*
Y12887D01*
X25863Y12451D01*
X25862Y12449D01*
X25860Y12447D01*
X25848Y12430D01*
X25836Y12413D01*
X25835Y12410D01*
X25834Y12408D01*
X25830Y12388D01*
X25825Y12367D01*
X25825Y12365D01*
X25824Y12362D01*
X25824Y12116D01*
X25646Y12116D01*
X25635D01*
Y11811D01*
X25576D01*
Y11752D01*
X25320D01*
Y11506D01*
X25320D01*
Y11486D01*
X25320D01*
Y11240D01*
X25576D01*
Y11122D01*
X25320D01*
Y10876D01*
X25488D01*
X25563Y10694D01*
X25423Y10553D01*
X17246Y10553D01*
Y10866D01*
X17237Y10912D01*
X17211Y10951D01*
X17211Y10951D01*
X17058Y11104D01*
X17054Y11108D01*
X17054D01*
X17015Y11134D01*
X17015D01*
X17002Y11137D01*
X16969Y11143D01*
X16923Y11134D01*
X16920Y11133D01*
X16869Y11122D01*
X16869Y11122D01*
X16869Y11122D01*
X16505D01*
X16369Y11122D01*
Y11122D01*
X16308D01*
Y11122D01*
X15808D01*
X15808Y11122D01*
X15619Y11140D01*
Y12003D01*
X15605Y12072D01*
X15566Y12131D01*
X15364Y12332D01*
X15305Y12372D01*
X15271Y12378D01*
Y12612D01*
Y12978D01*
X15271Y12978D01*
X15158Y13175D01*
X15160Y13189D01*
X15150Y13261D01*
X15123Y13328D01*
X15078Y13386D01*
X15021Y13430D01*
X14954Y13457D01*
X14882Y13467D01*
X14810Y13457D01*
X14743Y13430D01*
X14685Y13386D01*
X14673Y13370D01*
X14445D01*
X13860Y13954D01*
X13888Y14021D01*
X13888D01*
Y14405D01*
X13888Y14532D01*
X13888Y14729D01*
Y14798D01*
X13583D01*
Y14857D01*
X13524D01*
Y15113D01*
X13438D01*
X13278Y15113D01*
X13087Y15097D01*
X13012D01*
Y14847D01*
X12894D01*
Y15097D01*
X12760D01*
X12719Y15123D01*
X12601Y15269D01*
X12601Y15276D01*
X12591Y15348D01*
X12564Y15415D01*
X12519Y15472D01*
X12462Y15516D01*
X12395Y15544D01*
X12323Y15554D01*
X12251Y15544D01*
X12184Y15516D01*
X12126Y15472D01*
X12082Y15415D01*
X12054Y15348D01*
X12046Y15287D01*
X12045Y15276D01*
X12028Y15097D01*
X12028D01*
Y14733D01*
X12028Y14597D01*
X12028Y14401D01*
Y14036D01*
X12618D01*
X12783Y13960D01*
X12786Y13947D01*
X12825Y13888D01*
X13824Y12889D01*
X13749Y12707D01*
X13617Y12707D01*
X13420Y12707D01*
X13125D01*
X13036Y12707D01*
Y12707D01*
X12932Y12697D01*
Y12697D01*
X12568D01*
X12432Y12697D01*
X12235Y12697D01*
X12180D01*
Y12402D01*
X12121D01*
Y12343D01*
X11871D01*
Y12228D01*
X11855Y12037D01*
X11855Y11916D01*
Y11791D01*
X12111D01*
Y11732D01*
X12170D01*
Y11427D01*
X12239D01*
X12367Y11427D01*
X12564Y11427D01*
X12948D01*
Y11552D01*
X13583D01*
X13652Y11565D01*
X13710Y11605D01*
X14001Y11895D01*
X14040Y11954D01*
X14054Y12023D01*
Y12096D01*
X14129D01*
Y12221D01*
X14495D01*
Y12022D01*
X15164D01*
X15257Y11928D01*
Y11265D01*
X15127Y11122D01*
X14991Y11122D01*
X14936D01*
Y10827D01*
Y10532D01*
X14991D01*
X15127Y10532D01*
X15324Y10532D01*
X15688D01*
Y10532D01*
X15808D01*
Y10532D01*
X16142D01*
X16258Y10532D01*
X16258Y10451D01*
Y10236D01*
X16166Y10070D01*
X16133Y10039D01*
X10039D01*
Y17511D01*
X10087Y17553D01*
X10236Y17635D01*
X10236Y17635D01*
X14478Y17635D01*
X15628Y16486D01*
X15628Y15906D01*
X15628Y15266D01*
X15628Y15233D01*
X15534Y15184D01*
X15456Y15151D01*
X15445Y15148D01*
X15202D01*
Y14902D01*
X15458D01*
Y14783D01*
X15202D01*
Y14537D01*
X15202D01*
Y14439D01*
X15202D01*
Y14193D01*
X15458D01*
Y14075D01*
X15202D01*
Y13829D01*
X15446D01*
X15474Y13819D01*
X15628Y13632D01*
X15628Y13307D01*
X15637Y13261D01*
X15663Y13222D01*
X16225Y12660D01*
Y12218D01*
X16225D01*
Y12191D01*
X16225D01*
Y11825D01*
X17001D01*
Y11827D01*
X17276D01*
X17421Y11702D01*
X17421Y11566D01*
Y11511D01*
X17717D01*
X18012D01*
Y11566D01*
X18012Y11702D01*
X18012Y11899D01*
Y12221D01*
X19807D01*
X20477Y11551D01*
Y11393D01*
X20963D01*
X20978Y11372D01*
X21017Y11345D01*
X21063Y11336D01*
X23189D01*
X23189Y11336D01*
X23235Y11345D01*
X23274Y11372D01*
X23274Y11372D01*
X23510Y11608D01*
X23536Y11647D01*
X23546Y11693D01*
X23546Y11693D01*
Y15108D01*
X25400Y16962D01*
X25426Y17001D01*
X25435Y17047D01*
X25435Y17047D01*
X25435Y18701D01*
X25435Y18701D01*
X25426Y18747D01*
X25400Y18786D01*
X25400Y18786D01*
X25203Y18983D01*
X25203Y18983D01*
X25164Y19009D01*
X25118Y19018D01*
X25118Y19018D01*
X21024D01*
X20978Y19009D01*
X20938Y18983D01*
X20938Y18983D01*
X20742Y18786D01*
X20716Y18747D01*
X20706Y18701D01*
X20706Y18701D01*
X20706Y14687D01*
X18874D01*
X18858Y14684D01*
X18841Y14683D01*
X18835Y14679D01*
X18828Y14678D01*
X18814Y14669D01*
X18799Y14661D01*
X18724Y14601D01*
X18720Y14596D01*
X18714Y14592D01*
X18705Y14578D01*
X18694Y14565D01*
X18692Y14559D01*
X18688Y14553D01*
X18685Y14536D01*
X18680Y14520D01*
X18484Y14507D01*
X18219D01*
X18212Y14507D01*
X18022Y14523D01*
X18018Y14523D01*
X17776D01*
Y14267D01*
X17717D01*
Y14208D01*
X17411D01*
Y14139D01*
X17411Y14011D01*
X17411Y13814D01*
Y13430D01*
X17462D01*
X17505Y13233D01*
X17207Y12935D01*
X17010Y13016D01*
Y14832D01*
X18195Y16017D01*
X18221Y16056D01*
X18231Y16102D01*
X18231Y16102D01*
Y20591D01*
X18221Y20637D01*
X18195Y20676D01*
X18195Y20676D01*
X17104Y21767D01*
X17065Y21793D01*
X17001Y21833D01*
X16921Y21971D01*
X16919Y21975D01*
Y22082D01*
X16614D01*
Y22141D01*
X16555D01*
Y22397D01*
X16309D01*
Y22243D01*
X16211Y22087D01*
X15581D01*
Y21614D01*
X16159D01*
X16193Y21572D01*
X16224Y21389D01*
X16216Y21378D01*
X16207Y21367D01*
X16157Y21288D01*
X16154Y21279D01*
X16149Y21271D01*
X16146Y21257D01*
X16141Y21244D01*
X16141Y21234D01*
X16139Y21225D01*
Y21113D01*
X16013Y20987D01*
X14159D01*
X14121Y21043D01*
X14226Y21240D01*
X14310D01*
Y21240D01*
X14498Y21240D01*
Y21240D01*
X15128D01*
Y21713D01*
X14498D01*
Y21713D01*
X14460Y21717D01*
X14447Y21727D01*
Y21974D01*
X14460Y21984D01*
X14498Y21988D01*
X14507Y21988D01*
X15128D01*
Y22461D01*
X14832D01*
X14579Y22714D01*
X14660Y22911D01*
X17913Y22911D01*
X17959Y22920D01*
X17999Y22946D01*
X18195Y23143D01*
X18195Y23143D01*
X18221Y23182D01*
X18231Y23228D01*
X18231Y23228D01*
X18231Y26258D01*
X21260Y26258D01*
X21260Y26258D01*
X21306Y26267D01*
X21345Y26293D01*
X21345Y26293D01*
X21417Y26365D01*
X21614Y26365D01*
X21686Y26293D01*
X21686Y26293D01*
X21726Y26267D01*
X21772Y26258D01*
X21772Y26258D01*
X26125Y26258D01*
X26152Y26258D01*
X26152Y26258D01*
X26198Y26267D01*
X26237Y26293D01*
X26263Y26332D01*
X26272Y26378D01*
X26272Y26378D01*
X26272Y26404D01*
Y26710D01*
X27271D01*
Y26378D01*
D02*
G37*
G36*
X17638Y27244D02*
X18110Y26772D01*
X18110Y23228D01*
X17913Y23031D01*
X10236Y23031D01*
X10039Y23228D01*
X10039Y24685D01*
X10197Y24843D01*
X11024Y24843D01*
X11220Y25039D01*
X11220Y25945D01*
X11457Y26181D01*
X14173Y26181D01*
X15945Y26181D01*
X16063Y26063D01*
X16063Y24094D01*
X16220Y23937D01*
X16968Y23937D01*
X17126Y24094D01*
X17126Y26142D01*
X17362Y26378D01*
X17362Y27835D01*
X17638Y27835D01*
Y27244D01*
D02*
G37*
G36*
X29764Y26890D02*
X29803Y26851D01*
Y26812D01*
X29857Y26778D01*
X29990Y26644D01*
X30049Y26605D01*
X30118Y26591D01*
X30148D01*
Y26161D01*
X30171D01*
X30206Y26041D01*
X30060Y25886D01*
X30060D01*
Y25650D01*
X30310D01*
Y25531D01*
X30060D01*
Y25456D01*
X30044Y25266D01*
X30044Y25105D01*
Y25020D01*
X30300D01*
Y24961D01*
X30359D01*
Y24656D01*
X30428D01*
X30556Y24656D01*
X30753Y24656D01*
X31016D01*
X31019Y24642D01*
X31020Y24628D01*
X31024Y24619D01*
X31026Y24609D01*
X31033Y24598D01*
X31039Y24585D01*
X31046Y24578D01*
X31052Y24570D01*
X31063Y24563D01*
X31073Y24553D01*
X31153Y24504D01*
X31162Y24500D01*
X31170Y24495D01*
X31184Y24492D01*
X31197Y24487D01*
X31207Y24488D01*
X31216Y24486D01*
X31496D01*
X31542Y24495D01*
X31581Y24521D01*
X31607Y24560D01*
X31616Y24606D01*
Y25985D01*
X31810Y26179D01*
X33878Y26179D01*
X34024Y26079D01*
X34037Y26063D01*
X34055Y26039D01*
Y22958D01*
X33878Y22891D01*
X33858Y22893D01*
X33791Y22980D01*
X33696Y23054D01*
X33584Y23100D01*
X33465Y23116D01*
X33345Y23100D01*
X33234Y23054D01*
X33138Y22980D01*
X33064Y22885D01*
X33044Y22834D01*
X31433D01*
X31364Y22820D01*
X31318Y22790D01*
X31231Y22809D01*
X31121Y22854D01*
Y23130D01*
X31066D01*
Y23346D01*
X31161D01*
Y23898D01*
X30610D01*
X30610Y23898D01*
X30571D01*
Y23898D01*
X30413Y23898D01*
X30020D01*
Y23346D01*
X30130D01*
X30143Y23327D01*
X30060Y23130D01*
X30060D01*
Y23016D01*
X29905Y22903D01*
X29727Y22977D01*
Y25295D01*
X29782D01*
Y25531D01*
X29532D01*
Y25650D01*
X29782D01*
Y25886D01*
X29727D01*
Y26201D01*
X29718Y26247D01*
X29695Y26281D01*
Y26634D01*
X29549D01*
X29526Y26654D01*
X29409D01*
Y26890D01*
X29764Y26890D01*
D02*
G37*
G36*
X33878Y22126D02*
X34055Y21949D01*
Y21358D01*
X33878Y21181D01*
X31575Y21181D01*
X31496Y21102D01*
Y19488D01*
X31216D01*
X31137Y19537D01*
Y19783D01*
X30881D01*
Y19902D01*
X31137D01*
Y20148D01*
X31137D01*
X31082Y20217D01*
Y20728D01*
X30821D01*
X30748Y20801D01*
X30748Y21535D01*
X30276D01*
Y21772D01*
X30748Y21772D01*
X30901Y21925D01*
X30906Y21928D01*
X31104Y22126D01*
X33878Y22126D01*
D02*
G37*
G36*
X18110Y20591D02*
Y16102D01*
X16890Y14882D01*
Y12742D01*
X16313D01*
X15748Y13307D01*
X15748Y13743D01*
X15782Y13829D01*
X15848Y13829D01*
X15979D01*
Y14134D01*
X16038D01*
Y14193D01*
X16294D01*
Y14437D01*
X16294Y14439D01*
Y14537D01*
X16294Y14539D01*
Y14783D01*
X16038D01*
Y14843D01*
X15979D01*
Y15148D01*
X15848D01*
X15748Y15233D01*
X15748Y15906D01*
X15748Y16535D01*
X14528Y17756D01*
X10236Y17756D01*
X10039Y17953D01*
Y19094D01*
X10236Y19291D01*
X10827D01*
X12283Y20748D01*
X12283Y21228D01*
X12303Y21320D01*
X12539D01*
Y21570D01*
X12657D01*
Y21320D01*
X12894D01*
Y21535D01*
X13249D01*
Y21240D01*
X13440D01*
Y21535D01*
X13558D01*
Y21240D01*
X13680D01*
X13780Y21153D01*
Y21063D01*
X13976Y20866D01*
X16063D01*
X16260Y21063D01*
Y21225D01*
X16309Y21304D01*
X16555D01*
Y21560D01*
X16614D01*
Y21619D01*
X16919D01*
Y21640D01*
X17019Y21681D01*
X18110Y20591D01*
D02*
G37*
G36*
X20770Y14550D02*
X20983Y14337D01*
Y11929D01*
X20553D01*
X19981Y12501D01*
X19976Y12505D01*
X19882Y12598D01*
X18898D01*
Y13898D01*
X18859Y13936D01*
X18799Y14007D01*
X18799D01*
X18799Y14007D01*
Y14198D01*
X18504D01*
Y14316D01*
X18799D01*
Y14507D01*
X18874Y14567D01*
X20758D01*
X20770Y14550D01*
D02*
G37*
G36*
X25315Y18701D02*
X25315Y17047D01*
X23425Y15157D01*
Y11693D01*
X23189Y11457D01*
X21063D01*
Y14370D01*
X20827Y14606D01*
X20827Y18701D01*
X21024Y18898D01*
X25118D01*
X25315Y18701D01*
D02*
G37*
G36*
X29528Y16732D02*
X33858Y16732D01*
X34055Y16535D01*
X34055Y10236D01*
X33858Y10039D01*
X29528D01*
X25433Y10039D01*
X16575Y10039D01*
X16378Y10236D01*
Y10532D01*
X16560D01*
Y10827D01*
X16619D01*
Y10886D01*
X16869D01*
Y10982D01*
X16969Y11023D01*
X17126Y10866D01*
Y10433D01*
X25472Y10433D01*
X25915Y10876D01*
X26097D01*
Y11181D01*
X26156D01*
Y11240D01*
X26412D01*
Y11486D01*
X26412D01*
Y11506D01*
X26412D01*
Y11752D01*
X26156D01*
Y11811D01*
X26097D01*
Y12116D01*
X25945D01*
Y12362D01*
X26457Y12835D01*
Y18780D01*
X27480D01*
X29528Y16732D01*
D02*
G37*
%LPC*%
G36*
X18809Y28115D02*
X18563D01*
Y27918D01*
X18809D01*
Y28115D01*
D02*
G37*
G36*
X18445D02*
X18199D01*
Y27918D01*
X18445D01*
Y28115D01*
D02*
G37*
G36*
X18809Y27800D02*
X18563D01*
Y27603D01*
X18809D01*
Y27800D01*
D02*
G37*
G36*
X18445D02*
X18199D01*
Y27603D01*
X18445D01*
Y27800D01*
D02*
G37*
G36*
X16157Y29823D02*
X15966D01*
Y29587D01*
X16157D01*
Y29823D01*
D02*
G37*
G36*
X18286Y29469D02*
X18095D01*
Y29232D01*
X18286D01*
Y29469D01*
D02*
G37*
G36*
X28848Y27121D02*
X28602D01*
Y26924D01*
X28848D01*
Y27121D01*
D02*
G37*
G36*
X28484D02*
X28238D01*
Y26924D01*
X28484D01*
Y27121D01*
D02*
G37*
G36*
Y26806D02*
X28238D01*
Y26609D01*
X28484D01*
Y26806D01*
D02*
G37*
G36*
X28848Y22003D02*
X28602D01*
Y21806D01*
X28848D01*
Y22003D01*
D02*
G37*
G36*
X28484D02*
X28238D01*
Y21806D01*
X28484D01*
Y22003D01*
D02*
G37*
G36*
X16919Y22397D02*
X16673D01*
Y22200D01*
X16919D01*
Y22397D01*
D02*
G37*
G36*
X28484Y21107D02*
X28238D01*
Y20910D01*
X28484D01*
Y21107D01*
D02*
G37*
G36*
X29782Y20413D02*
X29592D01*
Y20177D01*
X29782D01*
Y20413D01*
D02*
G37*
G36*
X30241Y19783D02*
X30044D01*
Y19537D01*
X30241D01*
Y19783D01*
D02*
G37*
G36*
X13642Y15113D02*
Y14916D01*
X13888D01*
Y15113D01*
X13642D01*
D02*
G37*
G36*
X17657Y14523D02*
X17411D01*
Y14326D01*
X17657D01*
Y14523D01*
D02*
G37*
G36*
X12062Y12697D02*
X11871D01*
Y12461D01*
X12062D01*
Y12697D01*
D02*
G37*
G36*
X25517Y12116D02*
X25320D01*
Y11870D01*
X25517D01*
Y12116D01*
D02*
G37*
G36*
X12052Y11673D02*
X11855D01*
Y11427D01*
X12052D01*
Y11673D01*
D02*
G37*
G36*
X18012Y11393D02*
X17776D01*
Y11202D01*
X18012D01*
Y11393D01*
D02*
G37*
G36*
X17657D02*
X17421D01*
Y11202D01*
X17657D01*
Y11393D01*
D02*
G37*
G36*
X14818Y11122D02*
X14627D01*
Y10886D01*
X14818D01*
Y11122D01*
D02*
G37*
G36*
Y10768D02*
X14627D01*
Y10532D01*
X14818D01*
Y10768D01*
D02*
G37*
G36*
X30241Y24902D02*
X30044D01*
Y24656D01*
X30241D01*
Y24902D01*
D02*
G37*
G36*
X16919Y21501D02*
X16673D01*
Y21304D01*
X16919D01*
Y21501D01*
D02*
G37*
G36*
X16294Y15148D02*
X16097D01*
Y14902D01*
X16294D01*
Y15148D01*
D02*
G37*
G36*
Y14075D02*
X16097D01*
Y13829D01*
X16294D01*
Y14075D01*
D02*
G37*
G36*
X33883Y13214D02*
X33046D01*
Y12377D01*
X33883D01*
Y13214D01*
D02*
G37*
G36*
X26412Y12116D02*
X26216D01*
Y11870D01*
X26412D01*
Y12116D01*
D02*
G37*
G36*
Y11122D02*
X26216D01*
Y10876D01*
X26412D01*
Y11122D01*
D02*
G37*
G36*
X16869Y10768D02*
X16678D01*
Y10532D01*
X16869D01*
Y10768D01*
D02*
G37*
%LPD*%
D10*
X14813Y22224D02*
D03*
Y21850D02*
D03*
Y21476D02*
D03*
X15896D02*
D03*
Y21850D02*
D03*
Y22224D02*
D03*
X30463Y26398D02*
D03*
Y26772D02*
D03*
Y27146D02*
D03*
X29380D02*
D03*
Y26772D02*
D03*
Y26398D02*
D03*
X30463Y21280D02*
D03*
Y21654D02*
D03*
Y22028D02*
D03*
X29380D02*
D03*
Y21654D02*
D03*
Y21280D02*
D03*
D11*
X16752Y28691D02*
D03*
X17126D02*
D03*
X17500D02*
D03*
Y27608D02*
D03*
X17126D02*
D03*
X16752D02*
D03*
D12*
X24744Y18110D02*
D03*
X26988D02*
D03*
D13*
X24633Y27362D02*
D03*
X20643D02*
D03*
D14*
X30300Y19843D02*
D03*
X30881D02*
D03*
X30300Y24961D02*
D03*
X30881D02*
D03*
X13873Y12402D02*
D03*
X13292D02*
D03*
X12692Y11732D02*
D03*
X12111D02*
D03*
X16038Y14134D02*
D03*
X15458D02*
D03*
X16038Y14843D02*
D03*
X15458D02*
D03*
X26156Y11181D02*
D03*
X25576D02*
D03*
X26156Y11811D02*
D03*
X25576D02*
D03*
D15*
X13780Y16618D02*
D03*
Y19208D02*
D03*
D16*
X13583Y14277D02*
D03*
Y14857D02*
D03*
X17717Y14267D02*
D03*
Y13686D02*
D03*
X18504Y27859D02*
D03*
Y28440D02*
D03*
X28543Y26865D02*
D03*
Y26284D02*
D03*
Y21747D02*
D03*
Y21166D02*
D03*
X16614Y21560D02*
D03*
Y22141D02*
D03*
D17*
X24392Y14409D02*
D03*
X27262D02*
D03*
D18*
X13780Y28072D02*
D03*
Y25472D02*
D03*
D19*
X16585Y24409D02*
D03*
X17667D02*
D03*
X16585Y25591D02*
D03*
X17667D02*
D03*
D20*
X26772Y27815D02*
D03*
Y26516D02*
D03*
D21*
X30886Y28740D02*
D03*
X30295D02*
D03*
X30886Y23622D02*
D03*
X30295D02*
D03*
D22*
X17321Y17717D02*
D03*
X21656D02*
D03*
D23*
X12121Y12402D02*
D03*
X12682D02*
D03*
X16619Y10827D02*
D03*
X16058D02*
D03*
X14877D02*
D03*
X15438D02*
D03*
X13499Y29528D02*
D03*
X14060D02*
D03*
X17475Y29528D02*
D03*
X18036D02*
D03*
X16216D02*
D03*
X16777D02*
D03*
X29532Y25591D02*
D03*
X28971D02*
D03*
X30871Y25591D02*
D03*
X30310D02*
D03*
X29532Y20472D02*
D03*
X28971D02*
D03*
X30871D02*
D03*
X30310D02*
D03*
X30871Y27953D02*
D03*
X30310D02*
D03*
X30871Y22835D02*
D03*
X30310D02*
D03*
X13499Y21535D02*
D03*
X14060D02*
D03*
Y22165D02*
D03*
X13499D02*
D03*
D24*
X12953Y14847D02*
D03*
Y14286D02*
D03*
X12323D02*
D03*
Y14847D02*
D03*
X18504Y13696D02*
D03*
Y14257D02*
D03*
X17717Y11452D02*
D03*
Y12013D02*
D03*
X12598Y21570D02*
D03*
Y22131D02*
D03*
D25*
X19488Y12943D02*
D03*
Y11860D02*
D03*
D26*
X14883Y12795D02*
D03*
Y12598D02*
D03*
Y12402D02*
D03*
Y12205D02*
D03*
Y12008D02*
D03*
X16613D02*
D03*
Y12205D02*
D03*
Y12402D02*
D03*
Y12598D02*
D03*
Y12795D02*
D03*
D27*
X22950Y13152D02*
D03*
Y12652D02*
D03*
Y12152D02*
D03*
Y11652D02*
D03*
X20750D02*
D03*
Y12152D02*
D03*
Y12652D02*
D03*
Y13152D02*
D03*
D28*
X13150Y29173D02*
Y29178D01*
X13499Y29528D01*
X10630Y29150D02*
X11441Y29961D01*
X13917D01*
X14060Y29818D01*
Y29528D02*
Y29818D01*
X15945Y12205D02*
X16613D01*
X29252Y26772D02*
X29380D01*
X28765Y26284D02*
X29252Y26772D01*
X28543Y26284D02*
X28765D01*
X29252Y21654D02*
X29380D01*
X28765Y21166D02*
X29252Y21654D01*
X28543Y21166D02*
X28765D01*
X30463Y27146D02*
X30807D01*
X31433Y27772D01*
X33268D01*
X31433Y22654D02*
X33268D01*
X30807Y22028D02*
X31433Y22654D01*
X30463Y22028D02*
X30807D01*
X15438Y10827D02*
Y12003D01*
X15236Y12205D02*
X15438Y12003D01*
X14883Y12205D02*
X15236D01*
X12323Y14847D02*
Y15276D01*
X12692Y11732D02*
X13583D01*
X13873Y12023D01*
Y12402D01*
X13873Y12402D01*
X14883D01*
X12953Y14016D02*
Y14286D01*
Y14016D02*
X14370Y12598D01*
X14883D01*
X13583Y13976D02*
Y14277D01*
Y13976D02*
X14370Y13189D01*
X14882D01*
Y12796D02*
Y13189D01*
X18504D02*
Y13696D01*
X16613Y12598D02*
X17126D01*
X17717Y13189D01*
Y13686D01*
X17712Y12008D02*
X17717Y12013D01*
X16613Y12008D02*
X17712D01*
X20632Y11652D02*
X20750D01*
X19882Y12402D02*
X20632Y11652D01*
X16613Y12402D02*
X19882D01*
X12323Y14286D02*
X12953D01*
X12682Y12402D02*
X13292D01*
X15438Y10827D02*
X16058D01*
X28971Y25989D02*
X29380Y26398D01*
X28971Y25591D02*
Y25989D01*
X30463Y27146D02*
Y27431D01*
X30591Y27559D01*
Y28445D01*
X30295Y28740D02*
X30591Y28445D01*
X29961Y27795D02*
X30118Y27953D01*
X30310D01*
X29961Y26929D02*
Y27795D01*
Y26929D02*
X30118Y26772D01*
X30463D01*
X30118Y21654D02*
X30463D01*
X29961Y21811D02*
X30118Y21654D01*
X29961Y21811D02*
Y22677D01*
X30118Y22835D02*
X30310D01*
X29961Y22677D02*
X30118Y22835D01*
X30295Y23622D02*
X30591Y23327D01*
Y22441D02*
Y23327D01*
X30463Y22313D02*
X30591Y22441D01*
X30463Y22028D02*
Y22313D01*
X28971Y20472D02*
Y20871D01*
X29380Y21280D01*
X30886Y22849D02*
Y23622D01*
X30871Y22835D02*
X30886Y22849D01*
Y27968D02*
Y28740D01*
X30871Y27953D02*
X30886Y27968D01*
X30463Y20881D02*
Y21280D01*
Y20881D02*
X30871Y20472D01*
X30463Y25999D02*
X30871Y25591D01*
X30463Y25999D02*
Y26398D01*
X16777Y29528D02*
X17475D01*
X16752Y29503D02*
X16777Y29528D01*
X16752Y28691D02*
Y29503D01*
X17500Y28691D02*
X18253D01*
X18504Y28440D01*
X17008Y28268D02*
X17126Y28386D01*
Y28691D01*
X14060Y29528D02*
X15276D01*
X16535Y28268D01*
X17008D01*
X14060Y21535D02*
Y22165D01*
Y21535D02*
X14119Y21476D01*
X14813D01*
X10630Y20219D02*
X12542Y22131D01*
X12598D01*
X14360Y22677D02*
X14813Y22224D01*
X12089Y22677D02*
X14360D01*
X10630Y21219D02*
X12089Y22677D01*
X16324Y21850D02*
X16614Y21560D01*
X15896Y21850D02*
X16324D01*
X13071Y22165D02*
X13499D01*
X13071Y22165D02*
X13071Y22165D01*
X13032Y22165D02*
X13071D01*
D29*
X33465Y20654D02*
D03*
Y25772D02*
D03*
Y12795D02*
D03*
X10630Y17224D02*
D03*
Y28150D02*
D03*
Y25394D02*
D03*
Y20219D02*
D03*
D30*
X33465Y22654D02*
D03*
Y21654D02*
D03*
Y27772D02*
D03*
Y26772D02*
D03*
Y13795D02*
D03*
X10630Y18224D02*
D03*
Y29150D02*
D03*
Y24394D02*
D03*
Y21219D02*
D03*
D31*
X19685Y18110D02*
D03*
X24803Y11024D02*
D03*
X23228D02*
D03*
X21654D02*
D03*
X20079D02*
D03*
X18504D02*
D03*
X13780Y10630D02*
D03*
X12205D02*
D03*
X10630D02*
D03*
Y12205D02*
D03*
Y13780D02*
D03*
Y15354D02*
D03*
X18110Y14961D02*
D03*
X18504Y15748D02*
D03*
X20079D02*
D03*
X19291D02*
D03*
X18898Y16535D02*
D03*
X19685D02*
D03*
X20079Y17323D02*
D03*
X19291D02*
D03*
X25984Y24803D02*
D03*
X26772D02*
D03*
X25591Y25591D02*
D03*
X27165D02*
D03*
X26378D02*
D03*
X18898Y23228D02*
D03*
X19685D02*
D03*
X21260D02*
D03*
X20472D02*
D03*
X20079Y24016D02*
D03*
X20866D02*
D03*
X21654D02*
D03*
X27165Y20079D02*
D03*
X26378D02*
D03*
X25591D02*
D03*
X24016D02*
D03*
X23622Y20866D02*
D03*
X22835D02*
D03*
X23228Y21654D02*
D03*
X23622Y22441D02*
D03*
X24409D02*
D03*
X24016Y21654D02*
D03*
X26772Y20866D02*
D03*
X25984D02*
D03*
X25197D02*
D03*
X24409D02*
D03*
X24803Y21654D02*
D03*
X25591D02*
D03*
X26378D02*
D03*
X33465Y17717D02*
D03*
Y19685D02*
D03*
Y24016D02*
D03*
Y24803D02*
D03*
X24016Y30315D02*
D03*
X33465D02*
D03*
X31890D02*
D03*
X30315D02*
D03*
X28740D02*
D03*
X27165D02*
D03*
X25591D02*
D03*
X22441D02*
D03*
X20866D02*
D03*
X14567D02*
D03*
X19291D02*
D03*
X17717D02*
D03*
X16142D02*
D03*
X17126Y27205D02*
D03*
Y26929D02*
D03*
X18504Y27205D02*
D03*
Y26929D02*
D03*
X17126Y26654D02*
D03*
X18504D02*
D03*
D32*
X13150Y29173D02*
D03*
X12323Y15276D02*
D03*
X14882Y13189D02*
D03*
X18504D02*
D03*
X13071Y22165D02*
D03*
M02*
