G04 Layer_Physical_Order=2*
G04 Layer_Color=16711680*
%FSLAX24Y24*%
%MOIN*%
G70*
G01*
G75*
%ADD28C,0.0118*%
%ADD29R,0.0680X0.0680*%
%ADD30C,0.0680*%
%ADD31C,0.0236*%
%ADD32C,0.0315*%
G36*
X34055Y10039D02*
X10039D01*
Y30512D01*
X34055D01*
Y10039D01*
D02*
G37*
%LPC*%
G36*
X13150Y29451D02*
X13078Y29442D01*
X13011Y29414D01*
X12953Y29370D01*
X12909Y29312D01*
X12881Y29245D01*
X12872Y29173D01*
X12874Y29153D01*
X11290Y27569D01*
X11250Y27510D01*
X11237Y27441D01*
Y25256D01*
X10800Y24819D01*
X10749Y24840D01*
X10630Y24856D01*
X10510Y24840D01*
X10399Y24794D01*
X10303Y24720D01*
X10230Y24625D01*
X10184Y24513D01*
X10168Y24394D01*
X10184Y24274D01*
X10230Y24163D01*
X10303Y24067D01*
X10399Y23994D01*
X10510Y23947D01*
X10630Y23932D01*
X10749Y23947D01*
X10861Y23994D01*
X10957Y24067D01*
X11030Y24163D01*
X11076Y24274D01*
X11092Y24394D01*
X11076Y24513D01*
X11055Y24564D01*
X11545Y25053D01*
X11584Y25112D01*
X11598Y25181D01*
Y27366D01*
X13130Y28898D01*
X13150Y28895D01*
X13222Y28905D01*
X13289Y28932D01*
X13346Y28977D01*
X13390Y29034D01*
X13418Y29101D01*
X13428Y29173D01*
X13418Y29245D01*
X13390Y29312D01*
X13346Y29370D01*
X13289Y29414D01*
X13222Y29442D01*
X13150Y29451D01*
D02*
G37*
G36*
X10630Y29612D02*
X10510Y29596D01*
X10399Y29550D01*
X10303Y29476D01*
X10230Y29381D01*
X10184Y29269D01*
X10168Y29150D01*
X10184Y29030D01*
X10230Y28919D01*
X10303Y28823D01*
X10399Y28749D01*
X10510Y28703D01*
X10630Y28688D01*
X10749Y28703D01*
X10861Y28749D01*
X10957Y28823D01*
X11030Y28919D01*
X11076Y29030D01*
X11092Y29150D01*
X11076Y29269D01*
X11030Y29381D01*
X10957Y29476D01*
X10861Y29550D01*
X10749Y29596D01*
X10630Y29612D01*
D02*
G37*
G36*
X33465Y28234D02*
X33345Y28218D01*
X33234Y28172D01*
X33138Y28098D01*
X33064Y28003D01*
X33018Y27891D01*
X33003Y27772D01*
X33018Y27652D01*
X33064Y27541D01*
X33138Y27445D01*
X33234Y27372D01*
X33345Y27325D01*
X33370Y27322D01*
Y27221D01*
X33345Y27218D01*
X33234Y27172D01*
X33138Y27098D01*
X33064Y27003D01*
X33018Y26891D01*
X33003Y26772D01*
X33018Y26652D01*
X33064Y26541D01*
X33138Y26445D01*
X33234Y26372D01*
X33345Y26325D01*
X33465Y26310D01*
X33584Y26325D01*
X33696Y26372D01*
X33791Y26445D01*
X33865Y26541D01*
X33911Y26652D01*
X33927Y26772D01*
X33911Y26891D01*
X33865Y27003D01*
X33791Y27098D01*
X33696Y27172D01*
X33584Y27218D01*
X33559Y27221D01*
Y27322D01*
X33584Y27325D01*
X33696Y27372D01*
X33791Y27445D01*
X33865Y27541D01*
X33911Y27652D01*
X33927Y27772D01*
X33911Y27891D01*
X33865Y28003D01*
X33791Y28098D01*
X33696Y28172D01*
X33584Y28218D01*
X33465Y28234D01*
D02*
G37*
G36*
X16890Y27601D02*
X16844Y27592D01*
X16805Y27565D01*
X16779Y27526D01*
X16769Y27480D01*
X16769Y26417D01*
X16779Y26371D01*
X16805Y26332D01*
X16844Y26306D01*
X16890Y26297D01*
X18740Y26297D01*
X18786Y26306D01*
X18825Y26332D01*
X18851Y26371D01*
X18861Y26417D01*
X18861Y27480D01*
X18851Y27526D01*
X18825Y27565D01*
X18786Y27592D01*
X18740Y27601D01*
X16890Y27601D01*
D02*
G37*
G36*
X33465Y23116D02*
X33345Y23100D01*
X33234Y23054D01*
X33138Y22980D01*
X33064Y22885D01*
X33018Y22773D01*
X33003Y22654D01*
X33018Y22534D01*
X33064Y22423D01*
X33138Y22327D01*
X33234Y22253D01*
X33345Y22207D01*
X33370Y22204D01*
Y22103D01*
X33345Y22100D01*
X33234Y22054D01*
X33138Y21980D01*
X33064Y21885D01*
X33018Y21773D01*
X33003Y21654D01*
X33018Y21534D01*
X33064Y21423D01*
X33138Y21327D01*
X33234Y21253D01*
X33345Y21207D01*
X33465Y21192D01*
X33584Y21207D01*
X33696Y21253D01*
X33791Y21327D01*
X33865Y21423D01*
X33911Y21534D01*
X33927Y21654D01*
X33911Y21773D01*
X33865Y21885D01*
X33791Y21980D01*
X33696Y22054D01*
X33584Y22100D01*
X33559Y22103D01*
Y22204D01*
X33584Y22207D01*
X33696Y22253D01*
X33791Y22327D01*
X33865Y22423D01*
X33911Y22534D01*
X33927Y22654D01*
X33911Y22773D01*
X33865Y22885D01*
X33791Y22980D01*
X33696Y23054D01*
X33584Y23100D01*
X33465Y23116D01*
D02*
G37*
G36*
X10630Y21681D02*
X10510Y21665D01*
X10399Y21619D01*
X10303Y21545D01*
X10230Y21450D01*
X10184Y21338D01*
X10168Y21219D01*
X10184Y21099D01*
X10230Y20987D01*
X10303Y20892D01*
X10399Y20818D01*
X10510Y20772D01*
X10491Y20677D01*
X10172D01*
Y19760D01*
X11088D01*
Y20677D01*
X10769D01*
X10749Y20772D01*
X10861Y20818D01*
X10957Y20892D01*
X11030Y20987D01*
X11076Y21099D01*
X11092Y21219D01*
X11076Y21338D01*
X11030Y21450D01*
X10957Y21545D01*
X10861Y21619D01*
X10749Y21665D01*
X10630Y21681D01*
D02*
G37*
G36*
Y18686D02*
X10510Y18671D01*
X10399Y18625D01*
X10303Y18551D01*
X10230Y18455D01*
X10184Y18344D01*
X10168Y18224D01*
X10184Y18105D01*
X10230Y17993D01*
X10303Y17898D01*
X10399Y17824D01*
X10510Y17778D01*
X10630Y17762D01*
X10749Y17778D01*
X10800Y17799D01*
X12142Y16457D01*
Y15484D01*
X12126Y15472D01*
X12082Y15415D01*
X12054Y15348D01*
X12045Y15276D01*
X12054Y15204D01*
X12082Y15137D01*
X12126Y15079D01*
X12184Y15035D01*
X12251Y15007D01*
X12323Y14998D01*
X12395Y15007D01*
X12462Y15035D01*
X12519Y15079D01*
X12564Y15137D01*
X12591Y15204D01*
X12601Y15276D01*
X12591Y15348D01*
X12564Y15415D01*
X12519Y15472D01*
X12503Y15484D01*
Y16531D01*
X12490Y16601D01*
X12451Y16659D01*
X11055Y18054D01*
X11076Y18105D01*
X11092Y18224D01*
X11076Y18344D01*
X11030Y18455D01*
X10957Y18551D01*
X10861Y18625D01*
X10749Y18671D01*
X10630Y18686D01*
D02*
G37*
G36*
X18504Y13467D02*
X18432Y13457D01*
X18365Y13430D01*
X18307Y13386D01*
X18295Y13370D01*
X15091D01*
X15078Y13386D01*
X15021Y13430D01*
X14954Y13457D01*
X14882Y13467D01*
X14810Y13457D01*
X14743Y13430D01*
X14685Y13386D01*
X14641Y13328D01*
X14613Y13261D01*
X14604Y13189D01*
X14613Y13117D01*
X14641Y13050D01*
X14685Y12992D01*
X14743Y12948D01*
X14810Y12920D01*
X14882Y12911D01*
X14954Y12920D01*
X15021Y12948D01*
X15078Y12992D01*
X15091Y13008D01*
X18295D01*
X18307Y12992D01*
X18365Y12948D01*
X18432Y12920D01*
X18504Y12911D01*
X18576Y12920D01*
X18643Y12948D01*
X18700Y12992D01*
X18745Y13050D01*
X18772Y13117D01*
X18782Y13189D01*
X18772Y13261D01*
X18745Y13328D01*
X18700Y13386D01*
X18643Y13430D01*
X18576Y13457D01*
X18504Y13467D01*
D02*
G37*
G36*
X33465Y14257D02*
X33345Y14242D01*
X33234Y14195D01*
X33138Y14122D01*
X33064Y14026D01*
X33018Y13915D01*
X33003Y13795D01*
X33018Y13676D01*
X33064Y13564D01*
X33138Y13469D01*
X33234Y13395D01*
X33345Y13349D01*
X33465Y13333D01*
X33584Y13349D01*
X33696Y13395D01*
X33791Y13469D01*
X33865Y13564D01*
X33911Y13676D01*
X33927Y13795D01*
X33911Y13915D01*
X33865Y14026D01*
X33791Y14122D01*
X33696Y14195D01*
X33584Y14242D01*
X33465Y14257D01*
D02*
G37*
%LPD*%
G36*
X18740Y27480D02*
X18740Y26417D01*
X16890Y26417D01*
X16890Y27480D01*
X18740Y27480D01*
D02*
G37*
D28*
X10630Y24394D02*
X11417Y25181D01*
Y27441D01*
X13150Y29173D01*
X10630Y18224D02*
X12323Y16531D01*
Y15276D02*
Y16531D01*
X14882Y13189D02*
X18504D01*
D29*
X33465Y20654D02*
D03*
Y25772D02*
D03*
Y12795D02*
D03*
X10630Y17224D02*
D03*
Y28150D02*
D03*
Y25394D02*
D03*
Y20219D02*
D03*
D30*
X33465Y22654D02*
D03*
Y21654D02*
D03*
Y27772D02*
D03*
Y26772D02*
D03*
Y13795D02*
D03*
X10630Y18224D02*
D03*
Y29150D02*
D03*
Y24394D02*
D03*
Y21219D02*
D03*
D31*
X19685Y18110D02*
D03*
X24803Y11024D02*
D03*
X23228D02*
D03*
X21654D02*
D03*
X20079D02*
D03*
X18504D02*
D03*
X13780Y10630D02*
D03*
X12205D02*
D03*
X10630D02*
D03*
Y12205D02*
D03*
Y13780D02*
D03*
Y15354D02*
D03*
X18110Y14961D02*
D03*
X18504Y15748D02*
D03*
X20079D02*
D03*
X19291D02*
D03*
X18898Y16535D02*
D03*
X19685D02*
D03*
X20079Y17323D02*
D03*
X19291D02*
D03*
X25984Y24803D02*
D03*
X26772D02*
D03*
X25591Y25591D02*
D03*
X27165D02*
D03*
X26378D02*
D03*
X18898Y23228D02*
D03*
X19685D02*
D03*
X21260D02*
D03*
X20472D02*
D03*
X20079Y24016D02*
D03*
X20866D02*
D03*
X21654D02*
D03*
X27165Y20079D02*
D03*
X26378D02*
D03*
X25591D02*
D03*
X24016D02*
D03*
X23622Y20866D02*
D03*
X22835D02*
D03*
X23228Y21654D02*
D03*
X23622Y22441D02*
D03*
X24409D02*
D03*
X24016Y21654D02*
D03*
X26772Y20866D02*
D03*
X25984D02*
D03*
X25197D02*
D03*
X24409D02*
D03*
X24803Y21654D02*
D03*
X25591D02*
D03*
X26378D02*
D03*
X33465Y17717D02*
D03*
Y19685D02*
D03*
Y24016D02*
D03*
Y24803D02*
D03*
X24016Y30315D02*
D03*
X33465D02*
D03*
X31890D02*
D03*
X30315D02*
D03*
X28740D02*
D03*
X27165D02*
D03*
X25591D02*
D03*
X22441D02*
D03*
X20866D02*
D03*
X14567D02*
D03*
X19291D02*
D03*
X17717D02*
D03*
X16142D02*
D03*
X17126Y27205D02*
D03*
Y26929D02*
D03*
X18504Y27205D02*
D03*
Y26929D02*
D03*
X17126Y26654D02*
D03*
X18504D02*
D03*
D32*
X13150Y29173D02*
D03*
X12323Y15276D02*
D03*
X14882Y13189D02*
D03*
X18504D02*
D03*
X13071Y22165D02*
D03*
M02*
