G04 Layer_Color=65535*
%FSLAX24Y24*%
%MOIN*%
G70*
G01*
G75*
%ADD33C,0.0098*%
%ADD34C,0.0039*%
%ADD35C,0.0060*%
%ADD36C,0.0079*%
%ADD37C,0.0012*%
%ADD38C,0.0014*%
D33*
X14862Y22559D02*
G03*
X14862Y22559I-49J0D01*
G01*
X16467Y27608D02*
G03*
X16467Y27608I-49J0D01*
G01*
X27589Y18937D02*
G03*
X27589Y18937I-49J0D01*
G01*
X30512Y26063D02*
G03*
X30512Y26063I-49J0D01*
G01*
Y20945D02*
G03*
X30512Y20945I-49J0D01*
G01*
D34*
X30010Y29104D02*
G03*
X30010Y29104I-20J0D01*
G01*
Y23986D02*
G03*
X30010Y23986I-20J0D01*
G01*
D35*
X15628Y13012D02*
G03*
X15868Y13012I120J0D01*
G01*
X20335Y13152D02*
G03*
X20335Y13152I-30J0D01*
G01*
X19893Y28183D02*
Y29952D01*
X25383D01*
Y24772D02*
Y26541D01*
X19893Y24772D02*
X25383D01*
X19893D02*
Y26541D01*
X25383Y28183D02*
Y29952D01*
X12095Y16228D02*
Y19063D01*
X12630Y19598D01*
X13249D01*
X15465Y16228D02*
Y19063D01*
X14929Y19598D02*
X15465Y19063D01*
X14311Y19598D02*
X14929D01*
X12095Y16228D02*
X13249D01*
X14311D02*
X15465D01*
X24102Y14995D02*
Y16134D01*
Y12684D02*
Y13823D01*
X27552Y13260D02*
Y13823D01*
X26976Y12684D02*
X27552Y13260D01*
X24102Y12684D02*
X26976D01*
X27552Y14995D02*
Y15558D01*
X26976Y16134D02*
X27552Y15558D01*
X24102Y16134D02*
X26976D01*
X14286Y28497D02*
X15505D01*
X12055D02*
X13274D01*
X12631Y25047D02*
X13274D01*
X12055Y25623D02*
X12631Y25047D01*
X12055Y25623D02*
Y28497D01*
X14286Y25047D02*
X14929D01*
X15505Y25623D01*
Y28497D01*
X30031Y29020D02*
X31132D01*
X30031Y28470D02*
X31132D01*
X30031D02*
Y29020D01*
X31132Y28470D02*
Y28583D01*
Y28888D02*
Y29020D01*
X30031Y23902D02*
X31132D01*
X30031Y23352D02*
X31132D01*
X30031D02*
Y23902D01*
X31132Y23352D02*
Y23465D01*
Y23770D02*
Y23902D01*
X22183Y15022D02*
Y16701D01*
X16793Y18733D02*
Y20412D01*
X16948D02*
X22028D01*
X22183D01*
Y18733D02*
Y20412D01*
X22028Y15022D02*
X22183D01*
X16948D02*
X22028D01*
X16793D02*
X16948D01*
X16793D02*
Y16701D01*
Y20412D02*
X16948D01*
X15138Y11842D02*
X16358D01*
X15138Y13012D02*
X16358D01*
X20550Y13507D02*
X23150D01*
X20550Y11297D02*
X23150D01*
D36*
X15000Y13287D02*
G03*
X15000Y13287I-39J0D01*
G01*
X15157Y22461D02*
X15551D01*
X15157Y21240D02*
X15551D01*
X15157D02*
Y22461D01*
X15551Y21240D02*
Y22461D01*
X16516Y28346D02*
X17736D01*
X16516Y27953D02*
X17736D01*
Y28346D01*
X16516Y27953D02*
Y28346D01*
X24449Y19350D02*
X27283D01*
X24449Y16870D02*
X27283D01*
X24449Y18878D02*
Y19350D01*
X27283Y18878D02*
Y19350D01*
X24449Y16870D02*
Y17343D01*
X27283Y16870D02*
Y17343D01*
X17008Y24724D02*
X17244D01*
X17008Y24094D02*
X17244D01*
X17008Y25906D02*
X17244D01*
X17008Y25276D02*
X17244D01*
X27274Y26831D02*
Y27500D01*
X26270Y26831D02*
Y27500D01*
X19793Y12283D02*
Y12520D01*
X19183Y12283D02*
Y12520D01*
X29724Y26161D02*
X30118D01*
X29724Y27382D02*
X30118D01*
Y26161D02*
Y27382D01*
X29724Y26161D02*
Y27382D01*
Y21043D02*
X30118D01*
X29724Y22264D02*
X30118D01*
Y21043D02*
Y22264D01*
X29724Y21043D02*
Y22264D01*
X24449Y20000D02*
Y19606D01*
X24646D01*
X24711Y19672D01*
Y19934D01*
X24646Y20000D01*
X24449D01*
X24842Y19606D02*
X24974D01*
X24908D01*
Y20000D01*
X24842Y19934D01*
X25679Y29931D02*
Y29537D01*
X25942D01*
X26335D02*
X26073D01*
X26335Y29800D01*
Y29865D01*
X26270Y29931D01*
X26138D01*
X26073Y29865D01*
X31522Y19974D02*
X31457Y20039D01*
X31325D01*
X31260Y19974D01*
Y19711D01*
X31325Y19646D01*
X31457D01*
X31522Y19711D01*
X31653Y19646D02*
X31785D01*
X31719D01*
Y20039D01*
X31653Y19974D01*
X31981Y19711D02*
X32047Y19646D01*
X32178D01*
X32244Y19711D01*
Y19974D01*
X32178Y20039D01*
X32047D01*
X31981Y19974D01*
Y19908D01*
X32047Y19842D01*
X32244D01*
X31522Y25092D02*
X31457Y25157D01*
X31325D01*
X31260Y25092D01*
Y24829D01*
X31325Y24764D01*
X31457D01*
X31522Y24829D01*
X31653Y24764D02*
X31785D01*
X31719D01*
Y25157D01*
X31653Y25092D01*
X31981Y25157D02*
X32244D01*
Y25092D01*
X31981Y24829D01*
Y24764D01*
X13609Y11903D02*
X13543Y11968D01*
X13412D01*
X13346Y11903D01*
Y11640D01*
X13412Y11575D01*
X13543D01*
X13609Y11640D01*
X13740Y11575D02*
X13871D01*
X13806D01*
Y11968D01*
X13740Y11903D01*
X11286D02*
X11220Y11968D01*
X11089D01*
X11024Y11903D01*
Y11640D01*
X11089Y11575D01*
X11220D01*
X11286Y11640D01*
X11680Y11575D02*
X11417D01*
X11680Y11837D01*
Y11903D01*
X11614Y11968D01*
X11483D01*
X11417Y11903D01*
X14632Y14265D02*
X14567Y14331D01*
X14436D01*
X14370Y14265D01*
Y14003D01*
X14436Y13937D01*
X14567D01*
X14632Y14003D01*
X14764Y14265D02*
X14829Y14331D01*
X14960D01*
X15026Y14265D01*
Y14199D01*
X14960Y14134D01*
X14895D01*
X14960D01*
X15026Y14068D01*
Y14003D01*
X14960Y13937D01*
X14829D01*
X14764Y14003D01*
X14632Y14974D02*
X14567Y15039D01*
X14436D01*
X14370Y14974D01*
Y14711D01*
X14436Y14646D01*
X14567D01*
X14632Y14711D01*
X14960Y14646D02*
Y15039D01*
X14764Y14842D01*
X15026D01*
X12585Y20171D02*
X12520Y20236D01*
X12388D01*
X12323Y20171D01*
Y19908D01*
X12388Y19843D01*
X12520D01*
X12585Y19908D01*
X12979Y20236D02*
X12716D01*
Y20039D01*
X12848Y20105D01*
X12913D01*
X12979Y20039D01*
Y19908D01*
X12913Y19843D01*
X12782D01*
X12716Y19908D01*
X13714Y13635D02*
X13779Y13701D01*
Y13832D01*
X13714Y13898D01*
X13451D01*
X13386Y13832D01*
Y13701D01*
X13451Y13635D01*
X13779Y13242D02*
X13714Y13373D01*
X13583Y13504D01*
X13451D01*
X13386Y13438D01*
Y13307D01*
X13451Y13242D01*
X13517D01*
X13583Y13307D01*
Y13504D01*
X17178Y14029D02*
X17244Y14095D01*
Y14226D01*
X17178Y14291D01*
X16916D01*
X16850Y14226D01*
Y14095D01*
X16916Y14029D01*
X17244Y13898D02*
Y13635D01*
X17178D01*
X16916Y13898D01*
X16850D01*
X23412Y16037D02*
X23346Y16102D01*
X23215D01*
X23150Y16037D01*
Y15774D01*
X23215Y15709D01*
X23346D01*
X23412Y15774D01*
X23543Y16037D02*
X23609Y16102D01*
X23740D01*
X23806Y16037D01*
Y15971D01*
X23740Y15905D01*
X23806Y15840D01*
Y15774D01*
X23740Y15709D01*
X23609D01*
X23543Y15774D01*
Y15840D01*
X23609Y15905D01*
X23543Y15971D01*
Y16037D01*
X23609Y15905D02*
X23740D01*
X26916Y11312D02*
X26850Y11378D01*
X26719D01*
X26654Y11312D01*
Y11050D01*
X26719Y10984D01*
X26850D01*
X26916Y11050D01*
X27047D02*
X27113Y10984D01*
X27244D01*
X27310Y11050D01*
Y11312D01*
X27244Y11378D01*
X27113D01*
X27047Y11312D01*
Y11247D01*
X27113Y11181D01*
X27310D01*
X26916Y11942D02*
X26850Y12008D01*
X26719D01*
X26654Y11942D01*
Y11680D01*
X26719Y11614D01*
X26850D01*
X26916Y11680D01*
X27047Y11614D02*
X27178D01*
X27113D01*
Y12008D01*
X27047Y11942D01*
X27375D02*
X27441Y12008D01*
X27572D01*
X27637Y11942D01*
Y11680D01*
X27572Y11614D01*
X27441D01*
X27375Y11680D01*
Y11942D01*
X12585Y24698D02*
X12520Y24764D01*
X12388D01*
X12323Y24698D01*
Y24436D01*
X12388Y24370D01*
X12520D01*
X12585Y24436D01*
X12716Y24370D02*
X12848D01*
X12782D01*
Y24764D01*
X12716Y24698D01*
X13044Y24370D02*
X13176D01*
X13110D01*
Y24764D01*
X13044Y24698D01*
X18412Y24541D02*
X18346Y24606D01*
X18215D01*
X18150Y24541D01*
Y24278D01*
X18215Y24213D01*
X18346D01*
X18412Y24278D01*
X18543Y24213D02*
X18674D01*
X18609D01*
Y24606D01*
X18543Y24541D01*
X19134Y24213D02*
X18871D01*
X19134Y24475D01*
Y24541D01*
X19068Y24606D01*
X18937D01*
X18871Y24541D01*
X18412Y25722D02*
X18346Y25787D01*
X18215D01*
X18150Y25722D01*
Y25459D01*
X18215Y25394D01*
X18346D01*
X18412Y25459D01*
X18543Y25394D02*
X18674D01*
X18609D01*
Y25787D01*
X18543Y25722D01*
X18871D02*
X18937Y25787D01*
X19068D01*
X19134Y25722D01*
Y25656D01*
X19068Y25590D01*
X19002D01*
X19068D01*
X19134Y25525D01*
Y25459D01*
X19068Y25394D01*
X18937D01*
X18871Y25459D01*
X19226Y28399D02*
X19291Y28465D01*
Y28596D01*
X19226Y28661D01*
X18963D01*
X18898Y28596D01*
Y28465D01*
X18963Y28399D01*
X18898Y28268D02*
Y28137D01*
Y28202D01*
X19291D01*
X19226Y28268D01*
X18898Y27743D02*
X19291D01*
X19094Y27940D01*
Y27677D01*
X26522Y28674D02*
X26457Y28740D01*
X26325D01*
X26260Y28674D01*
Y28412D01*
X26325Y28346D01*
X26457D01*
X26522Y28412D01*
X26653Y28346D02*
X26785D01*
X26719D01*
Y28740D01*
X26653Y28674D01*
X27244Y28740D02*
X26981D01*
Y28543D01*
X27113Y28609D01*
X27178D01*
X27244Y28543D01*
Y28412D01*
X27178Y28346D01*
X27047D01*
X26981Y28412D01*
X28045Y26785D02*
X28110Y26850D01*
Y26982D01*
X28045Y27047D01*
X27782D01*
X27717Y26982D01*
Y26850D01*
X27782Y26785D01*
X27717Y26654D02*
Y26522D01*
Y26588D01*
X28110D01*
X28045Y26654D01*
X28110Y26063D02*
X28045Y26195D01*
X27913Y26326D01*
X27782D01*
X27717Y26260D01*
Y26129D01*
X27782Y26063D01*
X27848D01*
X27913Y26129D01*
Y26326D01*
X28045Y21706D02*
X28110Y21772D01*
Y21903D01*
X28045Y21969D01*
X27782D01*
X27717Y21903D01*
Y21772D01*
X27782Y21706D01*
X27717Y21575D02*
Y21444D01*
Y21509D01*
X28110D01*
X28045Y21575D01*
Y21247D02*
X28110Y21181D01*
Y21050D01*
X28045Y20985D01*
X27979D01*
X27913Y21050D01*
X27848Y20985D01*
X27782D01*
X27717Y21050D01*
Y21181D01*
X27782Y21247D01*
X27848D01*
X27913Y21181D01*
X27979Y21247D01*
X28045D01*
X27913Y21181D02*
Y21050D01*
X31339Y28937D02*
Y28543D01*
X31535D01*
X31601Y28609D01*
Y28871D01*
X31535Y28937D01*
X31339D01*
X31995Y28543D02*
X31732D01*
X31995Y28806D01*
Y28871D01*
X31929Y28937D01*
X31798D01*
X31732Y28871D01*
X31339Y23819D02*
Y23425D01*
X31535D01*
X31601Y23491D01*
Y23753D01*
X31535Y23819D01*
X31339D01*
X31732Y23753D02*
X31798Y23819D01*
X31929D01*
X31995Y23753D01*
Y23688D01*
X31929Y23622D01*
X31863D01*
X31929D01*
X31995Y23556D01*
Y23491D01*
X31929Y23425D01*
X31798D01*
X31732Y23491D01*
X22480Y20394D02*
Y20000D01*
X22743D01*
X22874D02*
X23005D01*
X22939D01*
Y20394D01*
X22874Y20328D01*
X11063Y12205D02*
Y12598D01*
X11260D01*
X11325Y12533D01*
Y12402D01*
X11260Y12336D01*
X11063D01*
X11194D02*
X11325Y12205D01*
X11457D02*
X11588D01*
X11522D01*
Y12598D01*
X11457Y12533D01*
X12756Y13898D02*
X13149D01*
Y13701D01*
X13084Y13635D01*
X12953D01*
X12887Y13701D01*
Y13898D01*
Y13766D02*
X12756Y13635D01*
Y13242D02*
Y13504D01*
X13018Y13242D01*
X13084D01*
X13149Y13307D01*
Y13438D01*
X13084Y13504D01*
X12126Y13898D02*
X12520D01*
Y13701D01*
X12454Y13635D01*
X12323D01*
X12257Y13701D01*
Y13898D01*
Y13766D02*
X12126Y13635D01*
X12454Y13504D02*
X12520Y13438D01*
Y13307D01*
X12454Y13242D01*
X12388D01*
X12323Y13307D01*
Y13373D01*
Y13307D01*
X12257Y13242D01*
X12192D01*
X12126Y13307D01*
Y13438D01*
X12192Y13504D01*
X16024Y11220D02*
Y11614D01*
X16220D01*
X16286Y11548D01*
Y11417D01*
X16220Y11352D01*
X16024D01*
X16155D02*
X16286Y11220D01*
X16614D02*
Y11614D01*
X16417Y11417D01*
X16680D01*
X14843Y11220D02*
Y11614D01*
X15039D01*
X15105Y11548D01*
Y11417D01*
X15039Y11352D01*
X14843D01*
X14974D02*
X15105Y11220D01*
X15498Y11614D02*
X15236D01*
Y11417D01*
X15367Y11483D01*
X15433D01*
X15498Y11417D01*
Y11286D01*
X15433Y11220D01*
X15302D01*
X15236Y11286D01*
X18937Y14331D02*
X19331D01*
Y14134D01*
X19265Y14068D01*
X19134D01*
X19068Y14134D01*
Y14331D01*
Y14200D02*
X18937Y14068D01*
X19331Y13675D02*
X19265Y13806D01*
X19134Y13937D01*
X19003D01*
X18937Y13872D01*
Y13740D01*
X19003Y13675D01*
X19068D01*
X19134Y13740D01*
Y13937D01*
X18150Y12047D02*
X18543D01*
Y11850D01*
X18478Y11785D01*
X18346D01*
X18281Y11850D01*
Y12047D01*
Y11916D02*
X18150Y11785D01*
X18543Y11654D02*
Y11391D01*
X18478D01*
X18215Y11654D01*
X18150D01*
X19134Y10906D02*
Y11299D01*
X19331D01*
X19396Y11233D01*
Y11102D01*
X19331Y11037D01*
X19134D01*
X19265D02*
X19396Y10906D01*
X19527Y11233D02*
X19593Y11299D01*
X19724D01*
X19790Y11233D01*
Y11168D01*
X19724Y11102D01*
X19790Y11037D01*
Y10971D01*
X19724Y10906D01*
X19593D01*
X19527Y10971D01*
Y11037D01*
X19593Y11102D01*
X19527Y11168D01*
Y11233D01*
X19593Y11102D02*
X19724D01*
X12441Y29331D02*
Y29724D01*
X12638D01*
X12703Y29659D01*
Y29527D01*
X12638Y29462D01*
X12441D01*
X12572D02*
X12703Y29331D01*
X12835Y29396D02*
X12900Y29331D01*
X13031D01*
X13097Y29396D01*
Y29659D01*
X13031Y29724D01*
X12900D01*
X12835Y29659D01*
Y29593D01*
X12900Y29527D01*
X13097D01*
X18386Y29331D02*
Y29724D01*
X18583D01*
X18648Y29659D01*
Y29527D01*
X18583Y29462D01*
X18386D01*
X18517D02*
X18648Y29331D01*
X18779D02*
X18911D01*
X18845D01*
Y29724D01*
X18779Y29659D01*
X19107D02*
X19173Y29724D01*
X19304D01*
X19370Y29659D01*
Y29396D01*
X19304Y29331D01*
X19173D01*
X19107Y29396D01*
Y29659D01*
X15039Y29331D02*
Y29724D01*
X15236D01*
X15302Y29659D01*
Y29527D01*
X15236Y29462D01*
X15039D01*
X15171D02*
X15302Y29331D01*
X15433D02*
X15564D01*
X15499D01*
Y29724D01*
X15433Y29659D01*
X15761Y29331D02*
X15892D01*
X15827D01*
Y29724D01*
X15761Y29659D01*
X28780Y24764D02*
Y25157D01*
X28976D01*
X29042Y25092D01*
Y24961D01*
X28976Y24895D01*
X28780D01*
X28911D02*
X29042Y24764D01*
X29173D02*
X29304D01*
X29239D01*
Y25157D01*
X29173Y25092D01*
X29763Y24764D02*
X29501D01*
X29763Y25026D01*
Y25092D01*
X29698Y25157D01*
X29567D01*
X29501Y25092D01*
X31260Y25394D02*
Y25787D01*
X31457D01*
X31522Y25722D01*
Y25590D01*
X31457Y25525D01*
X31260D01*
X31391D02*
X31522Y25394D01*
X31653D02*
X31785D01*
X31719D01*
Y25787D01*
X31653Y25722D01*
X31981D02*
X32047Y25787D01*
X32178D01*
X32244Y25722D01*
Y25656D01*
X32178Y25590D01*
X32113D01*
X32178D01*
X32244Y25525D01*
Y25459D01*
X32178Y25394D01*
X32047D01*
X31981Y25459D01*
X28780Y19685D02*
Y20079D01*
X28976D01*
X29042Y20013D01*
Y19882D01*
X28976Y19816D01*
X28780D01*
X28911D02*
X29042Y19685D01*
X29173D02*
X29304D01*
X29239D01*
Y20079D01*
X29173Y20013D01*
X29763Y20079D02*
X29501D01*
Y19882D01*
X29632Y19947D01*
X29698D01*
X29763Y19882D01*
Y19751D01*
X29698Y19685D01*
X29567D01*
X29501Y19751D01*
X31260Y20276D02*
Y20669D01*
X31457D01*
X31522Y20604D01*
Y20472D01*
X31457Y20407D01*
X31260D01*
X31391D02*
X31522Y20276D01*
X31653D02*
X31785D01*
X31719D01*
Y20669D01*
X31653Y20604D01*
X32244Y20669D02*
X32113Y20604D01*
X31981Y20472D01*
Y20341D01*
X32047Y20276D01*
X32178D01*
X32244Y20341D01*
Y20407D01*
X32178Y20472D01*
X31981D01*
X31220Y27756D02*
Y28149D01*
X31417D01*
X31483Y28084D01*
Y27953D01*
X31417Y27887D01*
X31220D01*
X31352D02*
X31483Y27756D01*
X31614D02*
X31745D01*
X31680D01*
Y28149D01*
X31614Y28084D01*
X32139Y27756D02*
Y28149D01*
X31942Y27953D01*
X32204D01*
X31220Y22638D02*
Y23031D01*
X31417D01*
X31483Y22966D01*
Y22835D01*
X31417Y22769D01*
X31220D01*
X31352D02*
X31483Y22638D01*
X31614D02*
X31745D01*
X31680D01*
Y23031D01*
X31614Y22966D01*
X31942Y23031D02*
X32204D01*
Y22966D01*
X31942Y22703D01*
Y22638D01*
X15472Y13622D02*
Y13294D01*
X15538Y13228D01*
X15669D01*
X15735Y13294D01*
Y13622D01*
X15866Y13228D02*
X15997D01*
X15932D01*
Y13622D01*
X15866Y13556D01*
X20630Y14212D02*
Y13884D01*
X20696Y13819D01*
X20827D01*
X20892Y13884D01*
Y14212D01*
X21286Y13819D02*
X21023D01*
X21286Y14081D01*
Y14147D01*
X21220Y14212D01*
X21089D01*
X21023Y14147D01*
X16220Y28465D02*
X15892D01*
X15827Y28399D01*
Y28268D01*
X15892Y28202D01*
X16220D01*
X16155Y28071D02*
X16220Y28005D01*
Y27874D01*
X16155Y27809D01*
X16089D01*
X16024Y27874D01*
Y27940D01*
Y27874D01*
X15958Y27809D01*
X15892D01*
X15827Y27874D01*
Y28005D01*
X15892Y28071D01*
X30945Y26968D02*
Y26640D01*
X31010Y26575D01*
X31142D01*
X31207Y26640D01*
Y26968D01*
X31535Y26575D02*
Y26968D01*
X31338Y26772D01*
X31601D01*
X30945Y21811D02*
Y21483D01*
X31010Y21417D01*
X31142D01*
X31207Y21483D01*
Y21811D01*
X31601D02*
X31338D01*
Y21614D01*
X31470Y21680D01*
X31535D01*
X31601Y21614D01*
Y21483D01*
X31535Y21417D01*
X31404D01*
X31338Y21483D01*
X17375Y22139D02*
X17441Y22205D01*
Y22336D01*
X17375Y22402D01*
X17113D01*
X17047Y22336D01*
Y22205D01*
X17113Y22139D01*
X17047Y21746D02*
Y22008D01*
X17310Y21746D01*
X17375D01*
X17441Y21811D01*
Y21942D01*
X17375Y22008D01*
Y21614D02*
X17441Y21549D01*
Y21418D01*
X17375Y21352D01*
X17113D01*
X17047Y21418D01*
Y21549D01*
X17113Y21614D01*
X17375D01*
X13307Y20709D02*
Y21102D01*
X13504D01*
X13569Y21037D01*
Y20905D01*
X13504Y20840D01*
X13307D01*
X13438D02*
X13569Y20709D01*
X13701D02*
X13832D01*
X13766D01*
Y21102D01*
X13701Y21037D01*
X14029D02*
X14094Y21102D01*
X14225D01*
X14291Y21037D01*
Y20971D01*
X14225Y20905D01*
X14291Y20840D01*
Y20774D01*
X14225Y20709D01*
X14094D01*
X14029Y20774D01*
Y20840D01*
X14094Y20905D01*
X14029Y20971D01*
Y21037D01*
X14094Y20905D02*
X14225D01*
X13268Y22559D02*
Y22953D01*
X13464D01*
X13530Y22887D01*
Y22756D01*
X13464Y22690D01*
X13268D01*
X13399D02*
X13530Y22559D01*
X13661D02*
X13792D01*
X13727D01*
Y22953D01*
X13661Y22887D01*
X13989Y22625D02*
X14055Y22559D01*
X14186D01*
X14252Y22625D01*
Y22887D01*
X14186Y22953D01*
X14055D01*
X13989Y22887D01*
Y22821D01*
X14055Y22756D01*
X14252D01*
X11811Y22400D02*
X12205D01*
Y22203D01*
X12139Y22137D01*
X12008D01*
X11942Y22203D01*
Y22400D01*
Y22268D02*
X11811Y22137D01*
Y21744D02*
Y22006D01*
X12073Y21744D01*
X12139D01*
X12205Y21809D01*
Y21940D01*
X12139Y22006D01*
Y21612D02*
X12205Y21547D01*
Y21416D01*
X12139Y21350D01*
X11877D01*
X11811Y21416D01*
Y21547D01*
X11877Y21612D01*
X12139D01*
X15000Y20945D02*
Y20617D01*
X15066Y20551D01*
X15197D01*
X15262Y20617D01*
Y20945D01*
X15656D02*
X15525Y20879D01*
X15394Y20748D01*
Y20617D01*
X15459Y20551D01*
X15590D01*
X15656Y20617D01*
Y20682D01*
X15590Y20748D01*
X15394D01*
D37*
X21160Y21840D02*
X21208D01*
X21160Y21830D02*
X21208D01*
X21140Y21742D02*
X21188D01*
X21140Y21752D02*
X21188D01*
X21150D02*
X21198D01*
X21189Y21801D02*
X21237D01*
X21189Y21791D02*
X21237D01*
X21189Y21781D02*
X21237D01*
X21189Y21771D02*
X21237D01*
X21170Y21761D02*
X21218D01*
X21160Y21820D02*
X21208D01*
X21170Y21771D02*
X21218D01*
X21179Y21781D02*
X21227D01*
X21179Y21791D02*
X21227D01*
X21179Y21801D02*
X21227D01*
X21189Y21811D02*
X21237D01*
X22654Y22797D02*
X22690D01*
X22630Y22785D02*
X22702D01*
X22498Y22773D02*
X22582D01*
X22618D02*
X22702D01*
X22402Y22761D02*
X22702D01*
X22378Y22749D02*
X22690D01*
X21850Y22737D02*
X21874D01*
X22378D02*
X22690D01*
X21826Y22725D02*
X21898D01*
X22366D02*
X22690D01*
X21814Y22713D02*
X21898D01*
X22366D02*
X22690D01*
X21814Y22701D02*
X21910D01*
X22366D02*
X22690D01*
X21814Y22689D02*
X21910D01*
X22366D02*
X22690D01*
X21802Y22677D02*
X21910D01*
X22378D02*
X22690D01*
X21802Y22665D02*
X21910D01*
X22390D02*
X22678D01*
X21802Y22653D02*
X21910D01*
X22486D02*
X22678D01*
X21802Y22641D02*
X21910D01*
X22474D02*
X22678D01*
X21802Y22629D02*
X21910D01*
X22450D02*
X22666D01*
X21802Y22617D02*
X21910D01*
X22426D02*
X22666D01*
X21802Y22605D02*
X21910D01*
X22414D02*
X22666D01*
X20697Y22613D02*
X20913D01*
X21802Y22593D02*
X21910D01*
X22402D02*
X22654D01*
X20613Y22601D02*
X20925D01*
X20937D02*
X20973D01*
X21802Y22581D02*
X21910D01*
X22390D02*
X22654D01*
X19137Y22589D02*
X19449D01*
X19473D02*
X20985D01*
X21802Y22569D02*
X21910D01*
X22378D02*
X22642D01*
X18693Y22576D02*
X20997D01*
X21802Y22557D02*
X21910D01*
X22366D02*
X22642D01*
X18645Y22564D02*
X20997D01*
X21802Y22545D02*
X21910D01*
X22354D02*
X22630D01*
X18645Y22552D02*
X20997D01*
X21802Y22533D02*
X21910D01*
X22342D02*
X22510D01*
X22522D02*
X22618D01*
X18633Y22541D02*
X20997D01*
X21802Y22521D02*
X21910D01*
X22330D02*
X22498D01*
X22522D02*
X22618D01*
X18621Y22529D02*
X20997D01*
X21802Y22509D02*
X21922D01*
X22318D02*
X22486D01*
X22522D02*
X22618D01*
X18621Y22517D02*
X20997D01*
X21802Y22497D02*
X21922D01*
X22306D02*
X22474D01*
X22534D02*
X22606D01*
X18609Y22504D02*
X20901D01*
X20913D02*
X20997D01*
X21802Y22485D02*
X21922D01*
X22306D02*
X22462D01*
X22546D02*
X22606D01*
X18621Y22492D02*
X20745D01*
X20829D02*
X20877D01*
X20913D02*
X20997D01*
X21802Y22473D02*
X21922D01*
X22306D02*
X22450D01*
X22558D02*
X22582D01*
X18609Y22480D02*
X18657D01*
X18729D02*
X19125D01*
X19401D02*
X19605D01*
X19641D02*
X20685D01*
X20913D02*
X20997D01*
X21802Y22461D02*
X21910D01*
X22306D02*
X22438D01*
X18597Y22469D02*
X18669D01*
X20913D02*
X21009D01*
X21802Y22449D02*
X21910D01*
X22306D02*
X22426D01*
X18585Y22457D02*
X18669D01*
X20913D02*
X21009D01*
X21802Y22437D02*
X21910D01*
X22306D02*
X22414D01*
X18585Y22445D02*
X18669D01*
X20913D02*
X21009D01*
X21802Y22425D02*
X21910D01*
X22318D02*
X22402D01*
X18585Y22432D02*
X18669D01*
X20913D02*
X21009D01*
X21802Y22413D02*
X21910D01*
X22330D02*
X22390D01*
X18585Y22420D02*
X18669D01*
X20913D02*
X21009D01*
X21802Y22401D02*
X21910D01*
X18585Y22408D02*
X18669D01*
X20913D02*
X21009D01*
X21814Y22389D02*
X21910D01*
X18585Y22397D02*
X18669D01*
X20913D02*
X21009D01*
X21814Y22377D02*
X21910D01*
X18585Y22385D02*
X18669D01*
X20913D02*
X21009D01*
X21682Y22365D02*
X22198D01*
X18585Y22373D02*
X18669D01*
X20913D02*
X21009D01*
X21610Y22353D02*
X22210D01*
X18585Y22360D02*
X18669D01*
X20913D02*
X21009D01*
X21526Y22341D02*
X22222D01*
X22498D02*
X22666D01*
X22690D02*
X22738D01*
X18585Y22348D02*
X18681D01*
X20913D02*
X21021D01*
X21502Y22329D02*
X22222D01*
X22486D02*
X22750D01*
X18585Y22336D02*
X18681D01*
X20913D02*
X21021D01*
X21490Y22317D02*
X22222D01*
X22486D02*
X22750D01*
X18585Y22325D02*
X18681D01*
X20913D02*
X21021D01*
X21490Y22305D02*
X22222D01*
X22486D02*
X22762D01*
X18585Y22313D02*
X18681D01*
X20913D02*
X21021D01*
X21490Y22293D02*
X22210D01*
X22486D02*
X22762D01*
X18585Y22301D02*
X18681D01*
X19089D02*
X19341D01*
X20913D02*
X21021D01*
X21490Y22281D02*
X22198D01*
X22486D02*
X22762D01*
X18585Y22288D02*
X18681D01*
X19005D02*
X19353D01*
X20913D02*
X21021D01*
X21490Y22269D02*
X22138D01*
X22486D02*
X22762D01*
X18585Y22276D02*
X18681D01*
X18957D02*
X19353D01*
X20913D02*
X21021D01*
X21514Y22257D02*
X22078D01*
X22498D02*
X22762D01*
X18585Y22264D02*
X18681D01*
X18921D02*
X19365D01*
X20913D02*
X21021D01*
X21790Y22245D02*
X21982D01*
X22510D02*
X22762D01*
X18585Y22253D02*
X18693D01*
X18897D02*
X19365D01*
X20913D02*
X21021D01*
X21778Y22233D02*
X21982D01*
X22546D02*
X22750D01*
X18585Y22241D02*
X18693D01*
X18885D02*
X19377D01*
X20913D02*
X21021D01*
X21778Y22221D02*
X22006D01*
X22558D02*
X22750D01*
X18585Y22229D02*
X18693D01*
X18873D02*
X19377D01*
X20913D02*
X21021D01*
X21766Y22209D02*
X22018D01*
X22534D02*
X22750D01*
X18585Y22216D02*
X18693D01*
X18873D02*
X19377D01*
X20913D02*
X21021D01*
X21766Y22197D02*
X21874D01*
X21886D02*
X22030D01*
X22522D02*
X22750D01*
X18585Y22204D02*
X18693D01*
X18873D02*
X19377D01*
X20913D02*
X21021D01*
X21754Y22185D02*
X21874D01*
X21886D02*
X22042D01*
X22510D02*
X22750D01*
X18585Y22192D02*
X18693D01*
X18885D02*
X19125D01*
X19257D02*
X19377D01*
X20913D02*
X21021D01*
X21754Y22173D02*
X21862D01*
X21898D02*
X22054D01*
X22498D02*
X22750D01*
X18585Y22181D02*
X18693D01*
X18885D02*
X19017D01*
X19269D02*
X19389D01*
X20913D02*
X21021D01*
X21742Y22161D02*
X21862D01*
X21910D02*
X22066D01*
X22486D02*
X22750D01*
X18585Y22169D02*
X18693D01*
X18897D02*
X18993D01*
X19269D02*
X19389D01*
X20913D02*
X21021D01*
X21730Y22149D02*
X21850D01*
X21922D02*
X22066D01*
X22474D02*
X22750D01*
X18585Y22157D02*
X18693D01*
X18897D02*
X18993D01*
X19269D02*
X19389D01*
X20913D02*
X21021D01*
X21730Y22137D02*
X21850D01*
X21922D02*
X22078D01*
X22462D02*
X22630D01*
X22642D02*
X22750D01*
X18585Y22144D02*
X18693D01*
X18897D02*
X18993D01*
X19269D02*
X19389D01*
X20913D02*
X21213D01*
X21718Y22125D02*
X21838D01*
X21934D02*
X22078D01*
X22450D02*
X22618D01*
X22654D02*
X22750D01*
X18585Y22132D02*
X18693D01*
X18897D02*
X19005D01*
X19269D02*
X19389D01*
X20913D02*
X21249D01*
X21706Y22113D02*
X21838D01*
X21946D02*
X22090D01*
X22438D02*
X22606D01*
X22654D02*
X22750D01*
X18585Y22120D02*
X18693D01*
X18897D02*
X19005D01*
X19281D02*
X19389D01*
X20913D02*
X21249D01*
X21694Y22101D02*
X21826D01*
X21958D02*
X22102D01*
X22438D02*
X22594D01*
X22654D02*
X22750D01*
X18585Y22109D02*
X18693D01*
X18909D02*
X19005D01*
X19281D02*
X19401D01*
X20925D02*
X21261D01*
X21682Y22089D02*
X21826D01*
X21970D02*
X22114D01*
X22426D02*
X22582D01*
X22666D02*
X22750D01*
X17963Y22097D02*
X17999D01*
X18585D02*
X18693D01*
X18909D02*
X19005D01*
X19281D02*
X19401D01*
X20925D02*
X21261D01*
X21670Y22077D02*
X21814D01*
X21982D02*
X22114D01*
X22426D02*
X22570D01*
X22666D02*
X22750D01*
X17951Y22085D02*
X18011D01*
X18585D02*
X18693D01*
X18909D02*
X19005D01*
X19281D02*
X19401D01*
X20925D02*
X21261D01*
X21670Y22065D02*
X21802D01*
X21982D02*
X22126D01*
X22426D02*
X22558D01*
X22678D02*
X22750D01*
X17915Y22073D02*
X18011D01*
X18585D02*
X18693D01*
X18897D02*
X19005D01*
X19281D02*
X19401D01*
X20937D02*
X21261D01*
X21658Y22053D02*
X21802D01*
X21994D02*
X22138D01*
X22426D02*
X22546D01*
X22690D02*
X22726D01*
X17891Y22060D02*
X18011D01*
X18585D02*
X18693D01*
X18897D02*
X19005D01*
X19281D02*
X19401D01*
X20937D02*
X21261D01*
X21646Y22041D02*
X21790D01*
X22006D02*
X22150D01*
X22426D02*
X22546D01*
X17879Y22048D02*
X18011D01*
X18585D02*
X18693D01*
X18897D02*
X19005D01*
X19281D02*
X19401D01*
X20973D02*
X21033D01*
X21093D02*
X21249D01*
X21634Y22029D02*
X21778D01*
X22006D02*
X22150D01*
X22426D02*
X22534D01*
X17867Y22036D02*
X18011D01*
X18585D02*
X18693D01*
X18897D02*
X19005D01*
X19281D02*
X19401D01*
X21153D02*
X21249D01*
X21622Y22017D02*
X21778D01*
X22018D02*
X22162D01*
X22438D02*
X22522D01*
X17855Y22025D02*
X18011D01*
X18585D02*
X18693D01*
X18897D02*
X19005D01*
X19281D02*
X19413D01*
X21153D02*
X21249D01*
X21622Y22005D02*
X21766D01*
X22030D02*
X22174D01*
X22450D02*
X22498D01*
X17843Y22013D02*
X17999D01*
X18585D02*
X18705D01*
X18897D02*
X19005D01*
X19293D02*
X19413D01*
X21153D02*
X21261D01*
X21610Y21993D02*
X21754D01*
X22030D02*
X22186D01*
X17843Y22001D02*
X17987D01*
X18585D02*
X18705D01*
X18897D02*
X19017D01*
X19293D02*
X19413D01*
X21153D02*
X21261D01*
X21598Y21981D02*
X21754D01*
X22042D02*
X22186D01*
X17831Y21988D02*
X17975D01*
X18585D02*
X18705D01*
X18897D02*
X19017D01*
X19293D02*
X19413D01*
X21153D02*
X21261D01*
X21586Y21969D02*
X21742D01*
X22054D02*
X22198D01*
X17819Y21976D02*
X17975D01*
X18585D02*
X18705D01*
X18897D02*
X19017D01*
X19293D02*
X19413D01*
X21153D02*
X21261D01*
X21586Y21957D02*
X21730D01*
X22054D02*
X22198D01*
X17819Y21964D02*
X17963D01*
X18585D02*
X18705D01*
X18897D02*
X19017D01*
X19293D02*
X19413D01*
X21153D02*
X21261D01*
X21574Y21945D02*
X21730D01*
X22066D02*
X22198D01*
X17807Y21953D02*
X17951D01*
X18585D02*
X18705D01*
X18897D02*
X19017D01*
X19293D02*
X19413D01*
X21153D02*
X21261D01*
X21562Y21933D02*
X21718D01*
X22078D02*
X22210D01*
X17807Y21941D02*
X17939D01*
X18585D02*
X18705D01*
X18897D02*
X19017D01*
X19293D02*
X19413D01*
X21153D02*
X21261D01*
X21562Y21921D02*
X21706D01*
X22078D02*
X22210D01*
X17795Y21929D02*
X17951D01*
X18047D02*
X18179D01*
X18585D02*
X18705D01*
X18897D02*
X19017D01*
X19293D02*
X19413D01*
X21153D02*
X21261D01*
X21550Y21909D02*
X21694D01*
X22090D02*
X22222D01*
X17783Y21916D02*
X18371D01*
X18585D02*
X18705D01*
X18897D02*
X19017D01*
X19293D02*
X19413D01*
X21153D02*
X21261D01*
X21550Y21897D02*
X21682D01*
X22090D02*
X22222D01*
X17783Y21904D02*
X18371D01*
X18585D02*
X18705D01*
X18897D02*
X19017D01*
X19293D02*
X19413D01*
X21153D02*
X21261D01*
X21538Y21885D02*
X21682D01*
X22102D02*
X22234D01*
X17783Y21892D02*
X18371D01*
X18585D02*
X18705D01*
X18897D02*
X19029D01*
X19293D02*
X19413D01*
X21153D02*
X21261D01*
X21526Y21873D02*
X21670D01*
X22114D02*
X22234D01*
X17771Y21881D02*
X18371D01*
X18585D02*
X18705D01*
X18897D02*
X19029D01*
X19293D02*
X19413D01*
X21153D02*
X21261D01*
X21514Y21861D02*
X21658D01*
X22114D02*
X22246D01*
X17771Y21869D02*
X18371D01*
X18585D02*
X18705D01*
X18897D02*
X19029D01*
X19293D02*
X19413D01*
X21165D02*
X21261D01*
X21514Y21849D02*
X21646D01*
X21694D02*
X22246D01*
X17771Y21857D02*
X18359D01*
X18585D02*
X18705D01*
X18909D02*
X19029D01*
X19293D02*
X19413D01*
X21165D02*
X21261D01*
X21514Y21837D02*
X21634D01*
X21646D02*
X22246D01*
X17759Y21844D02*
X18347D01*
X18585D02*
X18705D01*
X18909D02*
X19029D01*
X19293D02*
X19413D01*
X21009D02*
X21045D01*
X21165D02*
X21249D01*
X21514Y21825D02*
X22246D01*
X17759Y21832D02*
X18335D01*
X18585D02*
X18705D01*
X18909D02*
X19029D01*
X19293D02*
X19413D01*
X20961D02*
X21105D01*
X21177D02*
X21249D01*
X21526Y21813D02*
X22234D01*
X17759Y21820D02*
X18323D01*
X18585D02*
X18705D01*
X18909D02*
X19029D01*
X19293D02*
X19413D01*
X20937D02*
X21177D01*
X21189D02*
X21237D01*
X21538Y21801D02*
X22222D01*
X17759Y21809D02*
X18287D01*
X18585D02*
X18717D01*
X18909D02*
X19029D01*
X19281D02*
X19413D01*
X20925D02*
X21189D01*
X21562Y21789D02*
X22222D01*
X17759Y21797D02*
X17927D01*
X18035D02*
X18203D01*
X18585D02*
X18717D01*
X18909D02*
X19041D01*
X19281D02*
X19413D01*
X20913D02*
X21189D01*
X21562Y21777D02*
X22210D01*
X17747Y21785D02*
X17891D01*
X18585D02*
X18717D01*
X18909D02*
X19041D01*
X19281D02*
X19413D01*
X20913D02*
X21189D01*
X21562Y21765D02*
X22186D01*
X17747Y21772D02*
X17891D01*
X18585D02*
X18717D01*
X18909D02*
X19041D01*
X19281D02*
X19413D01*
X20913D02*
X21189D01*
X21574Y21753D02*
X22138D01*
X17747Y21760D02*
X17891D01*
X18585D02*
X18717D01*
X18909D02*
X19041D01*
X19281D02*
X19413D01*
X20913D02*
X21189D01*
X21586Y21741D02*
X22078D01*
X17747Y21748D02*
X17903D01*
X18585D02*
X18717D01*
X18909D02*
X19041D01*
X19281D02*
X19413D01*
X20925D02*
X21165D01*
X17747Y21737D02*
X17927D01*
X18585D02*
X18717D01*
X18909D02*
X19041D01*
X19281D02*
X19413D01*
X20949D02*
X21021D01*
X21033D02*
X21153D01*
X21826Y21717D02*
X21874D01*
X17759Y21725D02*
X17939D01*
X18585D02*
X18717D01*
X18909D02*
X19041D01*
X19293D02*
X19413D01*
X20937D02*
X21033D01*
X21081D02*
X21117D01*
X21814Y21705D02*
X21886D01*
X17759Y21713D02*
X17963D01*
X18585D02*
X18717D01*
X18909D02*
X19041D01*
X19293D02*
X19413D01*
X20937D02*
X21033D01*
X21814Y21693D02*
X21886D01*
X17759Y21700D02*
X17999D01*
X18585D02*
X18717D01*
X18909D02*
X19041D01*
X19281D02*
X19413D01*
X20937D02*
X21033D01*
X21814Y21681D02*
X21886D01*
X17771Y21688D02*
X18035D01*
X18585D02*
X18717D01*
X18909D02*
X19041D01*
X19281D02*
X19413D01*
X20937D02*
X21033D01*
X21814Y21669D02*
X21898D01*
X17771Y21676D02*
X18071D01*
X18597D02*
X18717D01*
X18909D02*
X19041D01*
X19281D02*
X19413D01*
X20937D02*
X21033D01*
X21814Y21657D02*
X21898D01*
X17783Y21665D02*
X18107D01*
X18597D02*
X18717D01*
X18909D02*
X19041D01*
X19209D02*
X19269D01*
X19281D02*
X19413D01*
X20937D02*
X21033D01*
X21814Y21645D02*
X21898D01*
X17795Y21653D02*
X18143D01*
X18597D02*
X18717D01*
X18921D02*
X19401D01*
X20937D02*
X21033D01*
X21814Y21633D02*
X21910D01*
X17795Y21641D02*
X18167D01*
X18597D02*
X18717D01*
X18921D02*
X19401D01*
X20937D02*
X21045D01*
X21802Y21621D02*
X21910D01*
X17807Y21628D02*
X18191D01*
X18597D02*
X18729D01*
X18921D02*
X19401D01*
X20937D02*
X21045D01*
X21802Y21609D02*
X21922D01*
X17831Y21616D02*
X18191D01*
X18597D02*
X18729D01*
X18933D02*
X19389D01*
X20937D02*
X21045D01*
X21802Y21597D02*
X21922D01*
X17843Y21604D02*
X18191D01*
X18597D02*
X18729D01*
X18957D02*
X19377D01*
X20937D02*
X21045D01*
X21802Y21585D02*
X21922D01*
X17867Y21593D02*
X18191D01*
X18597D02*
X18729D01*
X18969D02*
X19377D01*
X20937D02*
X21045D01*
X21802Y21573D02*
X21922D01*
X17891Y21581D02*
X18191D01*
X18597D02*
X18729D01*
X18981D02*
X19365D01*
X20937D02*
X21045D01*
X21802Y21561D02*
X21922D01*
X17927Y21569D02*
X18179D01*
X18597D02*
X18729D01*
X18993D02*
X19329D01*
X20937D02*
X21045D01*
X21802Y21549D02*
X21922D01*
X18071Y21556D02*
X18155D01*
X18597D02*
X18729D01*
X19017D02*
X19293D01*
X20937D02*
X21045D01*
X21802Y21537D02*
X21922D01*
X18597Y21544D02*
X18729D01*
X19077D02*
X19245D01*
X20937D02*
X21057D01*
X21802Y21525D02*
X21922D01*
X18597Y21532D02*
X18729D01*
X20937D02*
X21057D01*
X21802Y21513D02*
X21922D01*
X18597Y21521D02*
X18729D01*
X20949D02*
X21057D01*
X21802Y21501D02*
X21922D01*
X18597Y21509D02*
X18729D01*
X20949D02*
X21057D01*
X21790Y21489D02*
X21922D01*
X18597Y21497D02*
X18729D01*
X20949D02*
X21057D01*
X21790Y21477D02*
X21922D01*
X18597Y21484D02*
X18729D01*
X20949D02*
X21057D01*
X21790Y21465D02*
X21922D01*
X18597Y21472D02*
X18729D01*
X20949D02*
X21057D01*
X21790Y21453D02*
X21922D01*
X18609Y21460D02*
X18729D01*
X20949D02*
X21057D01*
X21790Y21441D02*
X21922D01*
X18609Y21449D02*
X18729D01*
X20949D02*
X21057D01*
X21790Y21429D02*
X21922D01*
X18609Y21437D02*
X18729D01*
X20949D02*
X21057D01*
X21790Y21417D02*
X21922D01*
X18609Y21425D02*
X18729D01*
X20949D02*
X21057D01*
X21790Y21405D02*
X21922D01*
X18609Y21412D02*
X18729D01*
X19941D02*
X21057D01*
X21790Y21393D02*
X21922D01*
X18609Y21400D02*
X18729D01*
X19833D02*
X21057D01*
X21790Y21381D02*
X21922D01*
X18609Y21388D02*
X18729D01*
X19449D02*
X21045D01*
X21790Y21369D02*
X21922D01*
X18609Y21377D02*
X18729D01*
X19233D02*
X21045D01*
X21790Y21357D02*
X21922D01*
X18609Y21365D02*
X18729D01*
X19125D02*
X21045D01*
X21790Y21345D02*
X21922D01*
X18609Y21353D02*
X18729D01*
X18861D02*
X21045D01*
X21790Y21333D02*
X21922D01*
X18609Y21340D02*
X18729D01*
X18801D02*
X21045D01*
X21790Y21321D02*
X21922D01*
X18609Y21328D02*
X21033D01*
X21790Y21309D02*
X21922D01*
X18609Y21316D02*
X21021D01*
X21802Y21297D02*
X21922D01*
X18609Y21305D02*
X21009D01*
X21802Y21285D02*
X21922D01*
X18609Y21293D02*
X19965D01*
X20421D02*
X20697D01*
X20721D02*
X20985D01*
X21802Y21273D02*
X21922D01*
X18609Y21281D02*
X19857D01*
X21802Y21261D02*
X21922D01*
X18621Y21268D02*
X19209D01*
X21802Y21249D02*
X21922D01*
X18731Y21335D02*
X18899D01*
X21802Y21237D02*
X21922D01*
X21814Y21225D02*
X21922D01*
X21814Y21213D02*
X21910D01*
X21838Y21201D02*
X21898D01*
X28937Y19260D02*
X28985D01*
X28925Y19248D02*
X28997D01*
X28925Y19236D02*
X28997D01*
X28853Y19224D02*
X29021D01*
X28805Y19212D02*
X29045D01*
X28769Y19200D02*
X29057D01*
X28733Y19188D02*
X29057D01*
X28709Y19176D02*
X29069D01*
X28697Y19164D02*
X29081D01*
X28673Y19152D02*
X29081D01*
X28649Y19140D02*
X29093D01*
X28637Y19128D02*
X29105D01*
X33317D02*
X33365D01*
X28625Y19116D02*
X29105D01*
X33305D02*
X33401D01*
X28613Y19104D02*
X29117D01*
X33293D02*
X33425D01*
X28601Y19092D02*
X29129D01*
X33293D02*
X33437D01*
X28601Y19080D02*
X29129D01*
X33293D02*
X33461D01*
X28589Y19068D02*
X29141D01*
X33293D02*
X33473D01*
X28589Y19056D02*
X28781D01*
X28805D02*
X28961D01*
X28973D02*
X29141D01*
X33305D02*
X33497D01*
X28589Y19044D02*
X28769D01*
X28793D02*
X28949D01*
X28973D02*
X29153D01*
X33317D02*
X33497D01*
X28589Y19032D02*
X28745D01*
X28781D02*
X28937D01*
X28985D02*
X29165D01*
X33341D02*
X33509D01*
X28601Y19020D02*
X28733D01*
X28781D02*
X28925D01*
X28997D02*
X29165D01*
X33353D02*
X33521D01*
X28601Y19008D02*
X28709D01*
X28769D02*
X28913D01*
X29009D02*
X29177D01*
X33365D02*
X33533D01*
X28625Y18996D02*
X28673D01*
X28757D02*
X28901D01*
X29009D02*
X29177D01*
X33377D02*
X33545D01*
X28757Y18984D02*
X28901D01*
X29021D02*
X29189D01*
X33389D02*
X33545D01*
X28745Y18972D02*
X28889D01*
X29033D02*
X29189D01*
X33401D02*
X33557D01*
X28733Y18960D02*
X28877D01*
X29045D02*
X29189D01*
X33413D02*
X33557D01*
X28733Y18948D02*
X28877D01*
X29057D02*
X29189D01*
X33413D02*
X33569D01*
X28721Y18936D02*
X28865D01*
X29069D02*
X29189D01*
X33425D02*
X33581D01*
X28721Y18924D02*
X28865D01*
X29081D02*
X29189D01*
X33437D02*
X33581D01*
X28709Y18912D02*
X28853D01*
X29093D02*
X29177D01*
X33437D02*
X33581D01*
X28709Y18900D02*
X28853D01*
X29105D02*
X29165D01*
X33449D02*
X33593D01*
X28697Y18888D02*
X28841D01*
X33449D02*
X33593D01*
X28697Y18876D02*
X28841D01*
X30269D02*
X30353D01*
X33461D02*
X33605D01*
X28697Y18864D02*
X28841D01*
X29897D02*
X30725D01*
X33461D02*
X33605D01*
X28685Y18852D02*
X28829D01*
X29825D02*
X31265D01*
X33473D02*
X33617D01*
X28685Y18840D02*
X28829D01*
X29765D02*
X31649D01*
X33473D02*
X33617D01*
X28685Y18828D02*
X28829D01*
X29753D02*
X31853D01*
X31961D02*
X32069D01*
X33473D02*
X33617D01*
X28673Y18816D02*
X28817D01*
X29741D02*
X32153D01*
X33485D02*
X33617D01*
X28673Y18804D02*
X28817D01*
X29741D02*
X32189D01*
X33485D02*
X33617D01*
X28673Y18792D02*
X28817D01*
X29729D02*
X32213D01*
X33485D02*
X33629D01*
X28673Y18780D02*
X28817D01*
X29741D02*
X32237D01*
X33497D02*
X33629D01*
X28661Y18768D02*
X28817D01*
X29741D02*
X32249D01*
X33497D02*
X33629D01*
X28661Y18756D02*
X28805D01*
X29741D02*
X32249D01*
X33497D02*
X33629D01*
X28661Y18744D02*
X28805D01*
X29765D02*
X29837D01*
X29849D02*
X29885D01*
X30029D02*
X32261D01*
X33497D02*
X33629D01*
X28661Y18732D02*
X28805D01*
X29753D02*
X29825D01*
X30389D02*
X32261D01*
X33497D02*
X33629D01*
X28661Y18720D02*
X28805D01*
X29741D02*
X29825D01*
X30749D02*
X32261D01*
X33497D02*
X33629D01*
X28661Y18708D02*
X28805D01*
X29729D02*
X29837D01*
X30953D02*
X32261D01*
X33497D02*
X33629D01*
X28661Y18696D02*
X28805D01*
X29729D02*
X29837D01*
X31445D02*
X31565D01*
X31577D02*
X32273D01*
X33497D02*
X33629D01*
X28661Y18684D02*
X28805D01*
X29729D02*
X29837D01*
X31757D02*
X32021D01*
X32033D02*
X32273D01*
X33485D02*
X33629D01*
X28661Y18672D02*
X28805D01*
X29729D02*
X29837D01*
X32105D02*
X32273D01*
X33485D02*
X33629D01*
X28661Y18660D02*
X28805D01*
X29729D02*
X29837D01*
X32165D02*
X32273D01*
X33485D02*
X33617D01*
X28661Y18648D02*
X28805D01*
X29729D02*
X29849D01*
X32165D02*
X32273D01*
X33485D02*
X33617D01*
X28661Y18636D02*
X28805D01*
X29729D02*
X29849D01*
X32165D02*
X32273D01*
X33485D02*
X33617D01*
X28661Y18624D02*
X28805D01*
X29717D02*
X29849D01*
X32165D02*
X32273D01*
X33473D02*
X33617D01*
X28661Y18612D02*
X28817D01*
X29717D02*
X29849D01*
X32165D02*
X32273D01*
X33473D02*
X33617D01*
X28661Y18600D02*
X28817D01*
X29717D02*
X29849D01*
X32165D02*
X32273D01*
X33473D02*
X33617D01*
X28661Y18588D02*
X28817D01*
X29717D02*
X29849D01*
X32165D02*
X32273D01*
X33461D02*
X33605D01*
X28661Y18576D02*
X28817D01*
X29717D02*
X29849D01*
X32165D02*
X32273D01*
X33461D02*
X33605D01*
X28661Y18564D02*
X28829D01*
X29717D02*
X29849D01*
X32153D02*
X32273D01*
X33449D02*
X33605D01*
X28673Y18552D02*
X28829D01*
X29717D02*
X29849D01*
X32153D02*
X32273D01*
X33449D02*
X33593D01*
X28673Y18540D02*
X28841D01*
X29717D02*
X29849D01*
X32153D02*
X32273D01*
X33437D02*
X33593D01*
X28673Y18528D02*
X28841D01*
X29717D02*
X29849D01*
X32153D02*
X32273D01*
X33437D02*
X33581D01*
X28673Y18516D02*
X28853D01*
X29717D02*
X29849D01*
X32153D02*
X32273D01*
X33425D02*
X33581D01*
X28685Y18504D02*
X28853D01*
X29717D02*
X29849D01*
X32153D02*
X32273D01*
X33413D02*
X33581D01*
X28685Y18492D02*
X28865D01*
X29705D02*
X29849D01*
X30413D02*
X30425D01*
X32153D02*
X32465D01*
X32849D02*
X32921D01*
X33401D02*
X33569D01*
X28697Y18480D02*
X28877D01*
X29705D02*
X29849D01*
X30389D02*
X30461D01*
X32153D02*
X32477D01*
X32837D02*
X32921D01*
X33389D02*
X33557D01*
X28697Y18468D02*
X28877D01*
X29705D02*
X29837D01*
X30377D02*
X30473D01*
X32153D02*
X32489D01*
X32825D02*
X32933D01*
X33365D02*
X33557D01*
X28697Y18456D02*
X28889D01*
X29705D02*
X29837D01*
X30377D02*
X30485D01*
X32153D02*
X32501D01*
X32813D02*
X32933D01*
X33353D02*
X33545D01*
X28709Y18444D02*
X28901D01*
X29705D02*
X29837D01*
X30365D02*
X30497D01*
X32153D02*
X32513D01*
X32801D02*
X32933D01*
X33341D02*
X33545D01*
X28709Y18432D02*
X28913D01*
X29705D02*
X29837D01*
X30365D02*
X30509D01*
X32153D02*
X32513D01*
X32789D02*
X32933D01*
X33317D02*
X33533D01*
X28721Y18420D02*
X28925D01*
X29705D02*
X29837D01*
X30377D02*
X30521D01*
X32153D02*
X32525D01*
X32789D02*
X32933D01*
X33293D02*
X33521D01*
X28733Y18408D02*
X28949D01*
X29705D02*
X29837D01*
X30389D02*
X30533D01*
X31037D02*
X31109D01*
X32141D02*
X32525D01*
X32777D02*
X32921D01*
X33269D02*
X33509D01*
X28733Y18396D02*
X28961D01*
X29705D02*
X29837D01*
X30401D02*
X30545D01*
X31013D02*
X31121D01*
X32153D02*
X32525D01*
X32765D02*
X32921D01*
X33233D02*
X33497D01*
X28745Y18384D02*
X28973D01*
X29705D02*
X29837D01*
X30413D02*
X30557D01*
X30989D02*
X31133D01*
X32153D02*
X32525D01*
X32765D02*
X32909D01*
X33197D02*
X33485D01*
X28757Y18372D02*
X28997D01*
X29705D02*
X29837D01*
X30413D02*
X30569D01*
X30977D02*
X31145D01*
X32177D02*
X32345D01*
X32393D02*
X32525D01*
X32753D02*
X32897D01*
X33173D02*
X33473D01*
X28769Y18360D02*
X29021D01*
X29705D02*
X29837D01*
X30425D02*
X30581D01*
X30977D02*
X31157D01*
X32393D02*
X32525D01*
X32753D02*
X32897D01*
X33137D02*
X33449D01*
X28781Y18348D02*
X29057D01*
X29705D02*
X29837D01*
X30437D02*
X30593D01*
X30965D02*
X31169D01*
X32393D02*
X32525D01*
X32741D02*
X32885D01*
X33101D02*
X33437D01*
X28781Y18336D02*
X29105D01*
X29705D02*
X29837D01*
X30437D02*
X30605D01*
X30953D02*
X31181D01*
X32393D02*
X32525D01*
X32741D02*
X32885D01*
X33053D02*
X33425D01*
X28793Y18324D02*
X29129D01*
X29705D02*
X29837D01*
X30449D02*
X30617D01*
X30941D02*
X31181D01*
X32393D02*
X32525D01*
X32729D02*
X32873D01*
X33005D02*
X33401D01*
X28805Y18312D02*
X29165D01*
X29705D02*
X29837D01*
X30461D02*
X30629D01*
X30929D02*
X31193D01*
X32393D02*
X32525D01*
X32729D02*
X32873D01*
X32933D02*
X33377D01*
X28829Y18300D02*
X29213D01*
X29705D02*
X29837D01*
X30473D02*
X30641D01*
X30917D02*
X31205D01*
X32393D02*
X32525D01*
X32717D02*
X32861D01*
X32873D02*
X33365D01*
X28841Y18288D02*
X29261D01*
X29705D02*
X29837D01*
X30485D02*
X30653D01*
X30905D02*
X31205D01*
X32393D02*
X32525D01*
X32717D02*
X33329D01*
X28853Y18276D02*
X29321D01*
X29705D02*
X29837D01*
X30497D02*
X30665D01*
X30893D02*
X31229D01*
X32393D02*
X32525D01*
X32705D02*
X33305D01*
X28865Y18264D02*
X29369D01*
X29705D02*
X29837D01*
X30497D02*
X30677D01*
X30881D02*
X31241D01*
X32393D02*
X32525D01*
X32693D02*
X33269D01*
X28889Y18252D02*
X29381D01*
X29705D02*
X29837D01*
X30509D02*
X30689D01*
X30881D02*
X31241D01*
X32381D02*
X32525D01*
X32681D02*
X33233D01*
X28901Y18240D02*
X29393D01*
X29693D02*
X29837D01*
X30521D02*
X30701D01*
X30869D02*
X31061D01*
X31073D02*
X31253D01*
X32381D02*
X32525D01*
X32669D02*
X33209D01*
X28925Y18228D02*
X29393D01*
X29693D02*
X29837D01*
X30533D02*
X30713D01*
X30857D02*
X31049D01*
X31073D02*
X31265D01*
X32381D02*
X32513D01*
X32669D02*
X33161D01*
X28949Y18216D02*
X29393D01*
X29693D02*
X29837D01*
X30545D02*
X30725D01*
X30857D02*
X31037D01*
X31085D02*
X31277D01*
X32381D02*
X32513D01*
X32669D02*
X33125D01*
X28985Y18204D02*
X29393D01*
X29693D02*
X29837D01*
X30557D02*
X30737D01*
X30845D02*
X31025D01*
X31085D02*
X31289D01*
X32381D02*
X32513D01*
X32681D02*
X33077D01*
X29021Y18192D02*
X29393D01*
X29693D02*
X29837D01*
X30569D02*
X30749D01*
X30845D02*
X31013D01*
X31097D02*
X31301D01*
X32381D02*
X32513D01*
X32681D02*
X33029D01*
X29069Y18180D02*
X29381D01*
X29693D02*
X29837D01*
X30581D02*
X30761D01*
X30833D02*
X31001D01*
X31109D02*
X31313D01*
X32381D02*
X32513D01*
X32705D02*
X32909D01*
X29117Y18168D02*
X29369D01*
X29693D02*
X29837D01*
X30581D02*
X30761D01*
X30833D02*
X31001D01*
X31121D02*
X31325D01*
X32381D02*
X32513D01*
X32705D02*
X32885D01*
X29189Y18156D02*
X29297D01*
X29693D02*
X29837D01*
X30593D02*
X30773D01*
X30833D02*
X30989D01*
X31133D02*
X31337D01*
X32381D02*
X32513D01*
X32705D02*
X32897D01*
X29693Y18144D02*
X29837D01*
X30605D02*
X30785D01*
X30821D02*
X30977D01*
X31145D02*
X31349D01*
X32381D02*
X32513D01*
X32705D02*
X32909D01*
X29693Y18132D02*
X29837D01*
X30617D02*
X30797D01*
X30821D02*
X30977D01*
X31157D02*
X31361D01*
X32381D02*
X32513D01*
X32717D02*
X32933D01*
X29693Y18120D02*
X29837D01*
X30617D02*
X30809D01*
X30821D02*
X30965D01*
X31157D02*
X31373D01*
X32381D02*
X32513D01*
X32717D02*
X32945D01*
X29693Y18108D02*
X29837D01*
X30629D02*
X30965D01*
X31169D02*
X31385D01*
X32153D02*
X32513D01*
X32729D02*
X32993D01*
X29693Y18096D02*
X29837D01*
X30641D02*
X30965D01*
X31181D02*
X31385D01*
X32129D02*
X32501D01*
X32729D02*
X33029D01*
X29693Y18084D02*
X29837D01*
X30653D02*
X30953D01*
X31193D02*
X31397D01*
X32117D02*
X32501D01*
X32741D02*
X33041D01*
X29693Y18072D02*
X29837D01*
X30665D02*
X30953D01*
X31205D02*
X31409D01*
X32117D02*
X32501D01*
X32753D02*
X33053D01*
X29693Y18060D02*
X29837D01*
X30677D02*
X30953D01*
X31217D02*
X31421D01*
X32117D02*
X32501D01*
X32765D02*
X33065D01*
X29693Y18048D02*
X29837D01*
X30677D02*
X30941D01*
X31217D02*
X31433D01*
X32117D02*
X32489D01*
X32777D02*
X33065D01*
X29693Y18036D02*
X29837D01*
X30689D02*
X30941D01*
X31229D02*
X31445D01*
X32117D02*
X32477D01*
X32789D02*
X33065D01*
X29693Y18024D02*
X29837D01*
X30701D02*
X30941D01*
X31241D02*
X31457D01*
X32117D02*
X32477D01*
X32801D02*
X33065D01*
X29693Y18012D02*
X29837D01*
X30713D02*
X30941D01*
X31253D02*
X31469D01*
X32129D02*
X32465D01*
X32825D02*
X33053D01*
X29693Y18000D02*
X29837D01*
X30713D02*
X30941D01*
X31265D02*
X31469D01*
X32129D02*
X32453D01*
X32849D02*
X33053D01*
X29693Y17988D02*
X29837D01*
X30725D02*
X30941D01*
X31277D02*
X31481D01*
X32129D02*
X32381D01*
X32885D02*
X33029D01*
X29693Y17976D02*
X29837D01*
X30737D02*
X30929D01*
X31289D02*
X31481D01*
X32129D02*
X32249D01*
X32933D02*
X32945D01*
X29693Y17964D02*
X29837D01*
X30749D02*
X30929D01*
X31289D02*
X31481D01*
X32129D02*
X32249D01*
X29693Y17952D02*
X29837D01*
X30749D02*
X30917D01*
X31301D02*
X31481D01*
X32129D02*
X32249D01*
X29693Y17940D02*
X29837D01*
X30761D02*
X30917D01*
X31313D02*
X31481D01*
X32129D02*
X32249D01*
X29693Y17928D02*
X29837D01*
X30773D02*
X30905D01*
X31337D02*
X31481D01*
X32129D02*
X32249D01*
X29693Y17916D02*
X29837D01*
X30785D02*
X30893D01*
X31361D02*
X31469D01*
X32129D02*
X32249D01*
X29693Y17904D02*
X29837D01*
X30797D02*
X30881D01*
X31397D02*
X31457D01*
X32117D02*
X32249D01*
X29693Y17892D02*
X29837D01*
X32117D02*
X32249D01*
X29693Y17880D02*
X29837D01*
X32117D02*
X32249D01*
X29693Y17868D02*
X29837D01*
X32117D02*
X32249D01*
X29693Y17856D02*
X29837D01*
X32117D02*
X32249D01*
X29693Y17844D02*
X29837D01*
X32117D02*
X32249D01*
X29693Y17832D02*
X29837D01*
X32117D02*
X32249D01*
X29693Y17820D02*
X29837D01*
X32117D02*
X32249D01*
X29693Y17808D02*
X29837D01*
X32117D02*
X32249D01*
X29693Y17796D02*
X29837D01*
X32117D02*
X32249D01*
X29693Y17784D02*
X29837D01*
X32117D02*
X32249D01*
X29693Y17772D02*
X29837D01*
X32117D02*
X32249D01*
X29693Y17760D02*
X29837D01*
X32105D02*
X32249D01*
X29693Y17748D02*
X29837D01*
X32105D02*
X32249D01*
X29693Y17736D02*
X29837D01*
X32105D02*
X32249D01*
X29693Y17724D02*
X29837D01*
X32105D02*
X32249D01*
X29693Y17712D02*
X30125D01*
X30137D02*
X30149D01*
X32105D02*
X32249D01*
X29693Y17700D02*
X30413D01*
X31157D02*
X31193D01*
X31709D02*
X31757D01*
X32105D02*
X32249D01*
X29693Y17688D02*
X32249D01*
X29705Y17676D02*
X32249D01*
X29705Y17664D02*
X32237D01*
X29705Y17652D02*
X32237D01*
X29717Y17640D02*
X32237D01*
X29729Y17628D02*
X32237D01*
X29741Y17616D02*
X32237D01*
X29981Y17604D02*
X32237D01*
X30113Y17592D02*
X32237D01*
X30305Y17580D02*
X32225D01*
X30449Y17568D02*
X32201D01*
X26423Y24332D02*
X26507D01*
X26147Y24320D02*
X26171D01*
X26375D02*
X26555D01*
X26063Y24308D02*
X26231D01*
X26351D02*
X26579D01*
X25655Y24296D02*
X25763D01*
X26015D02*
X26255D01*
X26339D02*
X26603D01*
X25619Y24284D02*
X25787D01*
X25991D02*
X26279D01*
X26315D02*
X26615D01*
X25595Y24272D02*
X25811D01*
X25967D02*
X26291D01*
X26303D02*
X26639D01*
X25571Y24260D02*
X25835D01*
X25943D02*
X26651D01*
X25559Y24248D02*
X25859D01*
X25931D02*
X26663D01*
X25547Y24236D02*
X25871D01*
X25919D02*
X26675D01*
X25535Y24224D02*
X25883D01*
X25907D02*
X26159D01*
X26171D02*
X26435D01*
X26495D02*
X26687D01*
X25535Y24212D02*
X26099D01*
X26207D02*
X26411D01*
X26519D02*
X26687D01*
X25523Y24200D02*
X25655D01*
X25751D02*
X26063D01*
X26219D02*
X26399D01*
X26543D02*
X26699D01*
X25523Y24188D02*
X25631D01*
X25775D02*
X26039D01*
X26243D02*
X26387D01*
X26567D02*
X26711D01*
X25511Y24176D02*
X25619D01*
X25799D02*
X26015D01*
X26243D02*
X26375D01*
X26579D02*
X26711D01*
X25511Y24164D02*
X25607D01*
X25811D02*
X26003D01*
X26243D02*
X26375D01*
X26591D02*
X26723D01*
X25499Y24152D02*
X25607D01*
X25811D02*
X25991D01*
X26231D02*
X26387D01*
X26591D02*
X26723D01*
X25499Y24140D02*
X25595D01*
X25823D02*
X25991D01*
X26231D02*
X26387D01*
X26603D02*
X26735D01*
X25499Y24128D02*
X25595D01*
X25835D02*
X25979D01*
X26219D02*
X26399D01*
X26615D02*
X26735D01*
X25499Y24116D02*
X25583D01*
X25835D02*
X25967D01*
X26219D02*
X26399D01*
X26615D02*
X26735D01*
X25487Y24104D02*
X25583D01*
X25823D02*
X25967D01*
X26219D02*
X26411D01*
X26615D02*
X26747D01*
X25487Y24092D02*
X25583D01*
X25823D02*
X25967D01*
X26207D02*
X26411D01*
X26627D02*
X26747D01*
X25487Y24080D02*
X25571D01*
X25811D02*
X25979D01*
X26207D02*
X26411D01*
X26627D02*
X26759D01*
X22663Y24378D02*
X22723D01*
X25487Y24068D02*
X25571D01*
X25811D02*
X25979D01*
X26195D02*
X26423D01*
X26627D02*
X26759D01*
X22651Y24366D02*
X22735D01*
X25475Y24056D02*
X25571D01*
X25799D02*
X25991D01*
X26195D02*
X26423D01*
X26639D02*
X26771D01*
X22627Y24354D02*
X22747D01*
X25475Y24044D02*
X25571D01*
X25799D02*
X25991D01*
X26195D02*
X26423D01*
X26639D02*
X26771D01*
X26939D02*
X27143D01*
X22615Y24342D02*
X22747D01*
X25475Y24032D02*
X25571D01*
X25799D02*
X25991D01*
X26183D02*
X26423D01*
X26651D02*
X26771D01*
X26819D02*
X27263D01*
X22591Y24330D02*
X22747D01*
X25475Y24020D02*
X25559D01*
X25787D02*
X26003D01*
X26183D02*
X26435D01*
X26651D02*
X27311D01*
X22579Y24318D02*
X22747D01*
X24911Y24008D02*
X24935D01*
X25439D02*
X25559D01*
X25787D02*
X26003D01*
X26183D02*
X26315D01*
X26327D02*
X26435D01*
X26651D02*
X27347D01*
X22567Y24306D02*
X22747D01*
X24887Y23996D02*
X24959D01*
X25043D02*
X25559D01*
X25787D02*
X26003D01*
X26183D02*
X26315D01*
X26327D02*
X26435D01*
X26651D02*
X27371D01*
X22555Y24294D02*
X22759D01*
X24875Y23984D02*
X25583D01*
X25787D02*
X26015D01*
X26183D02*
X26303D01*
X26327D02*
X26435D01*
X26651D02*
X27383D01*
X22531Y24282D02*
X22783D01*
X24875Y23972D02*
X25583D01*
X25775D02*
X26015D01*
X26183D02*
X26315D01*
X26327D02*
X26435D01*
X26651D02*
X27383D01*
X22519Y24270D02*
X22783D01*
X24863Y23960D02*
X25595D01*
X25775D02*
X26015D01*
X26183D02*
X26315D01*
X26327D02*
X26447D01*
X26651D02*
X27383D01*
X22507Y24258D02*
X22795D01*
X24863Y23948D02*
X25595D01*
X25775D02*
X26027D01*
X26183D02*
X26315D01*
X26327D02*
X26447D01*
X26651D02*
X27383D01*
X22495Y24246D02*
X22795D01*
X24863Y23936D02*
X25595D01*
X25775D02*
X26027D01*
X26183D02*
X26447D01*
X26651D02*
X27395D01*
X22483Y24234D02*
X22795D01*
X24863Y23924D02*
X25595D01*
X25775D02*
X26027D01*
X26183D02*
X26447D01*
X26663D02*
X26771D01*
X26795D02*
X27395D01*
X22471Y24222D02*
X22807D01*
X24875Y23912D02*
X25583D01*
X25775D02*
X26027D01*
X26195D02*
X26447D01*
X26663D02*
X26759D01*
X27083D02*
X27395D01*
X22447Y24210D02*
X22807D01*
X24875Y23900D02*
X25583D01*
X25787D02*
X26039D01*
X26195D02*
X26447D01*
X26675D02*
X26747D01*
X27275D02*
X27395D01*
X22435Y24198D02*
X22819D01*
X24875Y23888D02*
X24995D01*
X25115D02*
X25559D01*
X25787D02*
X26039D01*
X26207D02*
X26435D01*
X27275D02*
X27395D01*
X22423Y24186D02*
X22819D01*
X24875Y23876D02*
X24995D01*
X25415D02*
X25535D01*
X25787D02*
X26039D01*
X26207D02*
X26435D01*
X27275D02*
X27395D01*
X22399Y24174D02*
X22663D01*
X22675D02*
X22831D01*
X24875Y23864D02*
X24995D01*
X25787D02*
X26027D01*
X26219D02*
X26435D01*
X27275D02*
X27395D01*
X22387Y24162D02*
X22663D01*
X22675D02*
X22843D01*
X24875Y23852D02*
X24995D01*
X25787D02*
X26027D01*
X26231D02*
X26423D01*
X27275D02*
X27395D01*
X22375Y24150D02*
X22651D01*
X22687D02*
X22843D01*
X24875Y23840D02*
X24995D01*
X25799D02*
X26027D01*
X26243D02*
X26411D01*
X27275D02*
X27395D01*
X22363Y24138D02*
X22651D01*
X22687D02*
X22855D01*
X24875Y23828D02*
X24995D01*
X25799D02*
X26027D01*
X26255D02*
X26411D01*
X27275D02*
X27395D01*
X22351Y24126D02*
X22651D01*
X22699D02*
X22855D01*
X24875Y23816D02*
X25007D01*
X25811D02*
X26015D01*
X26279D02*
X26387D01*
X27275D02*
X27395D01*
X22351Y24114D02*
X22639D01*
X22699D02*
X22867D01*
X24875Y23804D02*
X25007D01*
X25823D02*
X26015D01*
X27275D02*
X27395D01*
X22351Y24102D02*
X22639D01*
X22711D02*
X22867D01*
X24875Y23792D02*
X25007D01*
X25835D02*
X26003D01*
X27275D02*
X27407D01*
X22351Y24090D02*
X22507D01*
X22519D02*
X22627D01*
X22711D02*
X22879D01*
X24875Y23780D02*
X25007D01*
X25859D02*
X25991D01*
X27275D02*
X27407D01*
X22351Y24078D02*
X22483D01*
X22507D02*
X22627D01*
X22723D02*
X22879D01*
X24875Y23768D02*
X25007D01*
X25871D02*
X25967D01*
X27275D02*
X27407D01*
X22363Y24066D02*
X22459D01*
X22507D02*
X22627D01*
X22723D02*
X22891D01*
X24875Y23756D02*
X25007D01*
X27275D02*
X27407D01*
X22495Y24054D02*
X22615D01*
X22735D02*
X22891D01*
X24875Y23744D02*
X25007D01*
X27275D02*
X27407D01*
X22495Y24042D02*
X22615D01*
X22735D02*
X22903D01*
X24863Y23732D02*
X25007D01*
X27275D02*
X27395D01*
X22495Y24030D02*
X22615D01*
X22747D02*
X22903D01*
X24863Y23720D02*
X25007D01*
X27275D02*
X27395D01*
X22483Y24018D02*
X22615D01*
X22759D02*
X22915D01*
X24863Y23708D02*
X25007D01*
X27287D02*
X27395D01*
X22483Y24006D02*
X22603D01*
X22771D02*
X22927D01*
X24863Y23696D02*
X25007D01*
X27275D02*
X27395D01*
X22483Y23994D02*
X22603D01*
X22783D02*
X22927D01*
X24863Y23684D02*
X25007D01*
X27263D02*
X27395D01*
X22471Y23982D02*
X22603D01*
X22795D02*
X22927D01*
X24863Y23672D02*
X25007D01*
X27263D02*
X27395D01*
X22471Y23970D02*
X22603D01*
X22807D02*
X22927D01*
X24863Y23660D02*
X25007D01*
X27263D02*
X27419D01*
X22471Y23958D02*
X22591D01*
X22819D02*
X22927D01*
X24863Y23648D02*
X25007D01*
X27275D02*
X27443D01*
X22471Y23946D02*
X22591D01*
X22843D02*
X22915D01*
X24863Y23636D02*
X25007D01*
X27275D02*
X27467D01*
X22459Y23934D02*
X22591D01*
X22867D02*
X22903D01*
X24863Y23624D02*
X25007D01*
X27287D02*
X27491D01*
X22459Y23922D02*
X22591D01*
X24863Y23612D02*
X25007D01*
X27299D02*
X27515D01*
X22459Y23910D02*
X22579D01*
X24863Y23600D02*
X25007D01*
X27311D02*
X27539D01*
X22459Y23898D02*
X22579D01*
X24863Y23588D02*
X25007D01*
X27323D02*
X27551D01*
X22447Y23886D02*
X22579D01*
X24863Y23576D02*
X25019D01*
X27335D02*
X27563D01*
X22447Y23874D02*
X22579D01*
X24863Y23564D02*
X25019D01*
X27347D02*
X27563D01*
X22447Y23862D02*
X22579D01*
X24863Y23552D02*
X25019D01*
X27371D02*
X27575D01*
X22447Y23850D02*
X22579D01*
X24863Y23540D02*
X25019D01*
X27407D02*
X27575D01*
X22447Y23838D02*
X22579D01*
X24863Y23528D02*
X25019D01*
X27419D02*
X27575D01*
X22447Y23826D02*
X22579D01*
X24863Y23516D02*
X25019D01*
X27359D02*
X27575D01*
X22435Y23814D02*
X22579D01*
X24863Y23504D02*
X25019D01*
X27311D02*
X27575D01*
X22435Y23802D02*
X22579D01*
X24851Y23492D02*
X25115D01*
X27275D02*
X27575D01*
X22435Y23790D02*
X22567D01*
X24623Y23480D02*
X25187D01*
X27239D02*
X27575D01*
X22435Y23778D02*
X22567D01*
X23695Y23688D02*
X23779D01*
X24575Y23468D02*
X25199D01*
X27215D02*
X27563D01*
X22435Y23766D02*
X22567D01*
X23575Y23676D02*
X23611D01*
X23635D02*
X23827D01*
X24527Y23456D02*
X25199D01*
X27179D02*
X27551D01*
X22435Y23754D02*
X22567D01*
X23551Y23664D02*
X23875D01*
X24503Y23444D02*
X25199D01*
X27155D02*
X27527D01*
X22435Y23742D02*
X22579D01*
X23551Y23652D02*
X23911D01*
X24503Y23432D02*
X25199D01*
X27131D02*
X27503D01*
X22435Y23730D02*
X22579D01*
X23539Y23640D02*
X23923D01*
X24503Y23420D02*
X25199D01*
X27107D02*
X27467D01*
X22435Y23718D02*
X22579D01*
X23539Y23628D02*
X23923D01*
X24503Y23408D02*
X25187D01*
X27095D02*
X27407D01*
X22435Y23706D02*
X22579D01*
X23539Y23616D02*
X23923D01*
X23947D02*
X23971D01*
X24503Y23396D02*
X25175D01*
X27095D02*
X27383D01*
X22435Y23694D02*
X22591D01*
X23539Y23604D02*
X23923D01*
X23935D02*
X23983D01*
X24515Y23384D02*
X25151D01*
X27083D02*
X27407D01*
X22435Y23682D02*
X22591D01*
X23539Y23592D02*
X23911D01*
X23923D02*
X23995D01*
X24187D02*
X24223D01*
X24527Y23372D02*
X24623D01*
X24647D02*
X25103D01*
X27083D02*
X27431D01*
X22435Y23670D02*
X22603D01*
X23539Y23580D02*
X23887D01*
X23923D02*
X24007D01*
X24175D02*
X24235D01*
X24779Y23360D02*
X25007D01*
X27083D02*
X27455D01*
X22447Y23658D02*
X22603D01*
X23539Y23568D02*
X23839D01*
X23923D02*
X24007D01*
X24163D02*
X24235D01*
X24767Y23348D02*
X25019D01*
X27083D02*
X27467D01*
X22447Y23646D02*
X22615D01*
X23539Y23556D02*
X23707D01*
X23923D02*
X24007D01*
X24151D02*
X24235D01*
X24767Y23336D02*
X25031D01*
X27095D02*
X27491D01*
X22447Y23634D02*
X22627D01*
X23539Y23544D02*
X23647D01*
X23911D02*
X24019D01*
X24151D02*
X24235D01*
X24755Y23324D02*
X25043D01*
X27095D02*
X27515D01*
X22459Y23622D02*
X22639D01*
X23539Y23532D02*
X23647D01*
X23911D02*
X24019D01*
X24139D02*
X24235D01*
X24743Y23312D02*
X25055D01*
X27107D02*
X27527D01*
X22459Y23610D02*
X22651D01*
X23539Y23520D02*
X23659D01*
X23911D02*
X24031D01*
X24127D02*
X24235D01*
X24743Y23300D02*
X24875D01*
X24899D02*
X25055D01*
X27131D02*
X27179D01*
X27275D02*
X27527D01*
X22471Y23598D02*
X22663D01*
X23539Y23508D02*
X23659D01*
X23911D02*
X24031D01*
X24115D02*
X24235D01*
X24731Y23288D02*
X24875D01*
X24911D02*
X25067D01*
X27311D02*
X27539D01*
X22471Y23586D02*
X22675D01*
X23539Y23496D02*
X23659D01*
X23911D02*
X24043D01*
X24115D02*
X24235D01*
X24719Y23276D02*
X24863D01*
X24911D02*
X25079D01*
X27335D02*
X27551D01*
X22483Y23574D02*
X22699D01*
X23551Y23484D02*
X23671D01*
X23911D02*
X24043D01*
X24115D02*
X24247D01*
X24719Y23264D02*
X24863D01*
X24923D02*
X25091D01*
X27371D02*
X27563D01*
X22483Y23562D02*
X22723D01*
X23551Y23472D02*
X23671D01*
X23911D02*
X24055D01*
X24103D02*
X24247D01*
X24707Y23252D02*
X24851D01*
X24935D02*
X25103D01*
X27395D02*
X27575D01*
X22495Y23550D02*
X22747D01*
X23551Y23460D02*
X23695D01*
X23923D02*
X24055D01*
X24103D02*
X24247D01*
X24695Y23240D02*
X24851D01*
X24947D02*
X25103D01*
X27419D02*
X27575D01*
X22495Y23538D02*
X22807D01*
X23551Y23448D02*
X23731D01*
X23923D02*
X24067D01*
X24091D02*
X24235D01*
X24683Y23228D02*
X24839D01*
X24947D02*
X25115D01*
X27395D02*
X27587D01*
X22507Y23526D02*
X22867D01*
X23551Y23436D02*
X23767D01*
X23923D02*
X24067D01*
X24091D02*
X24235D01*
X24671Y23216D02*
X24839D01*
X24959D02*
X25127D01*
X27335D02*
X27587D01*
X22519Y23514D02*
X22939D01*
X23551Y23424D02*
X23791D01*
X23935D02*
X24067D01*
X24091D02*
X24235D01*
X24659Y23204D02*
X24827D01*
X24971D02*
X25139D01*
X27299D02*
X27587D01*
X22531Y23502D02*
X23035D01*
X23563Y23412D02*
X23803D01*
X23935D02*
X24079D01*
X24091D02*
X24235D01*
X24659Y23192D02*
X24815D01*
X24971D02*
X25151D01*
X27263D02*
X27575D01*
X22543Y23490D02*
X23155D01*
X23563Y23400D02*
X23815D01*
X23935D02*
X24079D01*
X24091D02*
X24223D01*
X24647Y23180D02*
X24815D01*
X24983D02*
X25151D01*
X27239D02*
X27575D01*
X22555Y23478D02*
X23191D01*
X23563Y23388D02*
X23827D01*
X23935D02*
X24223D01*
X24635Y23168D02*
X24803D01*
X24995D02*
X25163D01*
X27215D02*
X27575D01*
X22567Y23466D02*
X23215D01*
X23575Y23376D02*
X23827D01*
X23947D02*
X24223D01*
X24623Y23156D02*
X24791D01*
X24995D02*
X25175D01*
X27191D02*
X27563D01*
X22591Y23454D02*
X23215D01*
X23575Y23364D02*
X23839D01*
X23947D02*
X24223D01*
X24611Y23144D02*
X24791D01*
X25007D02*
X25175D01*
X27167D02*
X27539D01*
X22603Y23442D02*
X23227D01*
X23599Y23352D02*
X23851D01*
X23947D02*
X24223D01*
X24611Y23132D02*
X24779D01*
X25019D02*
X25187D01*
X27155D02*
X27515D01*
X22627Y23430D02*
X23227D01*
X23647Y23340D02*
X23851D01*
X23959D02*
X24223D01*
X24599Y23120D02*
X24767D01*
X25019D02*
X25199D01*
X27143D02*
X27455D01*
X22651Y23418D02*
X23227D01*
X23683Y23328D02*
X23851D01*
X23959D02*
X24211D01*
X24587Y23108D02*
X24755D01*
X25031D02*
X25199D01*
X27143D02*
X27419D01*
X22675Y23406D02*
X23215D01*
X23707Y23316D02*
X23863D01*
X23959D02*
X24211D01*
X24575Y23096D02*
X24743D01*
X25043D02*
X25211D01*
X27131D02*
X27395D01*
X22711Y23394D02*
X23203D01*
X23719Y23304D02*
X23863D01*
X23959D02*
X24211D01*
X24575Y23084D02*
X24743D01*
X25055D02*
X25223D01*
X27131D02*
X27431D01*
X22771Y23382D02*
X23167D01*
X23719Y23292D02*
X23863D01*
X23959D02*
X24211D01*
X24563Y23072D02*
X24731D01*
X25055D02*
X25235D01*
X27131D02*
X27455D01*
X22831Y23370D02*
X23131D01*
X23731Y23280D02*
X23863D01*
X23971D02*
X24211D01*
X24551Y23060D02*
X24719D01*
X25067D02*
X25247D01*
X27131D02*
X27479D01*
X22915Y23358D02*
X23071D01*
X23731Y23268D02*
X23875D01*
X23971D02*
X24211D01*
X24539Y23048D02*
X24719D01*
X25079D02*
X25247D01*
X27131D02*
X27503D01*
X23491Y23256D02*
X23515D01*
X23731D02*
X23875D01*
X23971D02*
X24199D01*
X24527Y23036D02*
X24707D01*
X25091D02*
X25259D01*
X27143D02*
X27515D01*
X23479Y23244D02*
X23539D01*
X23731D02*
X23875D01*
X23971D02*
X24199D01*
X24527Y23024D02*
X24695D01*
X24815D02*
X25067D01*
X25103D02*
X25271D01*
X27143D02*
X27539D01*
X23467Y23232D02*
X23551D01*
X23731D02*
X23875D01*
X23983D02*
X24199D01*
X24515Y23012D02*
X25283D01*
X27167D02*
X27551D01*
X23467Y23220D02*
X23587D01*
X23707D02*
X23875D01*
X23983D02*
X24199D01*
X24503Y23000D02*
X25283D01*
X27191D02*
X27563D01*
X23467Y23208D02*
X23647D01*
X23683D02*
X23875D01*
X23983D02*
X24187D01*
X24491Y22988D02*
X25283D01*
X27311D02*
X27563D01*
X23467Y23196D02*
X23863D01*
X23983D02*
X24187D01*
X24479Y22976D02*
X25283D01*
X27323D02*
X27563D01*
X23479Y23184D02*
X23863D01*
X23995D02*
X24187D01*
X24479Y22964D02*
X25271D01*
X27287D02*
X27563D01*
X23479Y23172D02*
X23863D01*
X23995D02*
X24187D01*
X24479Y22952D02*
X25271D01*
X27251D02*
X27563D01*
X23491Y23160D02*
X23851D01*
X23995D02*
X24175D01*
X24479Y22940D02*
X25283D01*
X27227D02*
X27563D01*
X23503Y23148D02*
X23851D01*
X24007D02*
X24175D01*
X24479Y22928D02*
X25283D01*
X27215D02*
X27551D01*
X23515Y23136D02*
X23839D01*
X24007D02*
X24163D01*
X24491Y22916D02*
X25271D01*
X27191D02*
X27539D01*
X23527Y23124D02*
X23827D01*
X24019D02*
X24163D01*
X24503Y22904D02*
X25271D01*
X27191D02*
X27515D01*
X23539Y23112D02*
X23815D01*
X24019D02*
X24151D01*
X24527Y22892D02*
X25247D01*
X27179D02*
X27467D01*
X23551Y23100D02*
X23791D01*
X24031D02*
X24151D01*
X24731Y22880D02*
X24839D01*
X24899D02*
X25199D01*
X27167D02*
X27431D01*
X23575Y23088D02*
X23767D01*
X24043D02*
X24139D01*
X24899Y22868D02*
X25007D01*
X27167D02*
X27395D01*
X23611Y23076D02*
X23743D01*
X24055D02*
X24127D01*
X24899Y22856D02*
X25019D01*
X27167D02*
X27359D01*
X24899Y22844D02*
X25019D01*
X27167D02*
X27359D01*
X24899Y22832D02*
X25019D01*
X27167D02*
X27383D01*
X24887Y22820D02*
X25019D01*
X27167D02*
X27419D01*
X24887Y22808D02*
X25019D01*
X27167D02*
X27443D01*
X24887Y22796D02*
X25019D01*
X27179D02*
X27455D01*
X24887Y22784D02*
X25019D01*
X27191D02*
X27467D01*
X24887Y22772D02*
X25019D01*
X27203D02*
X27479D01*
X24887Y22760D02*
X25019D01*
X27215D02*
X27491D01*
X24887Y22748D02*
X25019D01*
X27239D02*
X27491D01*
X24887Y22736D02*
X25019D01*
X27263D02*
X27491D01*
X24887Y22724D02*
X25019D01*
X27275D02*
X27491D01*
X24887Y22712D02*
X25019D01*
X27275D02*
X27491D01*
X24887Y22700D02*
X25019D01*
X27275D02*
X27491D01*
X24887Y22688D02*
X25019D01*
X27275D02*
X27491D01*
X24887Y22676D02*
X25019D01*
X27275D02*
X27479D01*
X24887Y22664D02*
X25019D01*
X27275D02*
X27467D01*
X24887Y22652D02*
X25019D01*
X27275D02*
X27443D01*
X24887Y22640D02*
X25019D01*
X27275D02*
X27407D01*
X24887Y22628D02*
X25019D01*
X27275D02*
X27407D01*
X24887Y22616D02*
X25019D01*
X27275D02*
X27407D01*
X24887Y22604D02*
X25019D01*
X27275D02*
X27407D01*
X24887Y22592D02*
X25019D01*
X27275D02*
X27407D01*
X24887Y22580D02*
X25019D01*
X27263D02*
X27407D01*
X24887Y22568D02*
X25019D01*
X27275D02*
X27407D01*
X24875Y22556D02*
X25019D01*
X27275D02*
X27407D01*
X24875Y22544D02*
X25019D01*
X27275D02*
X27407D01*
X24875Y22532D02*
X25019D01*
X27275D02*
X27407D01*
X24875Y22520D02*
X25019D01*
X27275D02*
X27407D01*
X24875Y22508D02*
X25019D01*
X27275D02*
X27407D01*
X24875Y22496D02*
X25019D01*
X27275D02*
X27407D01*
X24875Y22484D02*
X25019D01*
X27275D02*
X27407D01*
X24875Y22472D02*
X25019D01*
X27275D02*
X27407D01*
X24875Y22460D02*
X25019D01*
X27275D02*
X27407D01*
X24875Y22448D02*
X25007D01*
X27275D02*
X27407D01*
X24875Y22436D02*
X25007D01*
X27275D02*
X27407D01*
X24875Y22424D02*
X25007D01*
X27275D02*
X27407D01*
X24875Y22412D02*
X25007D01*
X27275D02*
X27407D01*
X24875Y22400D02*
X25007D01*
X27275D02*
X27407D01*
X24875Y22388D02*
X25007D01*
X27275D02*
X27407D01*
X24875Y22376D02*
X25007D01*
X27275D02*
X27407D01*
X24875Y22364D02*
X25007D01*
X27287D02*
X27407D01*
X24887Y22352D02*
X25007D01*
X26159D02*
X27275D01*
X27287D02*
X27407D01*
X24887Y22340D02*
X25007D01*
X26099D02*
X27407D01*
X24887Y22328D02*
X25007D01*
X25595D02*
X27407D01*
X24887Y22316D02*
X24995D01*
X25043D02*
X25259D01*
X25283D02*
X27407D01*
X24887Y22304D02*
X27395D01*
X24875Y22292D02*
X27383D01*
X24875Y22280D02*
X27371D01*
X24875Y22268D02*
X27371D01*
X24875Y22256D02*
X27359D01*
X24887Y22244D02*
X27347D01*
X24911Y22232D02*
X25043D01*
X25151D02*
X25655D01*
X25727D02*
X26327D01*
D38*
X33436Y14258D02*
X33506D01*
X33452Y14252D02*
X33494D01*
X31290Y15559D02*
X32256D01*
X30800Y15545D02*
X30870D01*
X30898D02*
X33404D01*
X30772Y15531D02*
X33446D01*
X30772Y15517D02*
X33516D01*
X30772Y15503D02*
X33530D01*
X30772Y15489D02*
X33530D01*
X30772Y15475D02*
X33530D01*
X30772Y15461D02*
X33544D01*
X30758Y15447D02*
X33544D01*
X30758Y15433D02*
X33544D01*
X30758Y15419D02*
X30870D01*
X32200D02*
X33544D01*
X30758Y15405D02*
X30870D01*
X33082D02*
X33278D01*
X33418D02*
X33544D01*
X30758Y15391D02*
X30870D01*
X33418D02*
X33544D01*
X30758Y15377D02*
X30870D01*
X33418D02*
X33544D01*
X30758Y15363D02*
X30870D01*
X33418D02*
X33544D01*
X30758Y15349D02*
X30870D01*
X33418D02*
X33544D01*
X30758Y15335D02*
X30870D01*
X33418D02*
X33544D01*
X30758Y15321D02*
X30870D01*
X33418D02*
X33544D01*
X30758Y15307D02*
X30870D01*
X33418D02*
X33558D01*
X30758Y15293D02*
X30870D01*
X33404D02*
X33558D01*
X30758Y15279D02*
X30870D01*
X33404D02*
X33558D01*
X30758Y15265D02*
X30870D01*
X33404D02*
X33558D01*
X30758Y15251D02*
X30870D01*
X33404D02*
X33558D01*
X30758Y15237D02*
X30870D01*
X33404D02*
X33558D01*
X30758Y15223D02*
X30870D01*
X33404D02*
X33558D01*
X30758Y15209D02*
X30870D01*
X33404D02*
X33558D01*
X30744Y15195D02*
X30870D01*
X33404D02*
X33558D01*
X30744Y15181D02*
X30870D01*
X33404D02*
X33558D01*
X30744Y15167D02*
X30870D01*
X33404D02*
X33558D01*
X30744Y15153D02*
X30870D01*
X33404D02*
X33558D01*
X30744Y15139D02*
X30870D01*
X33404D02*
X33558D01*
X30744Y15125D02*
X30870D01*
X33404D02*
X33558D01*
X30744Y15111D02*
X30870D01*
X33404D02*
X33558D01*
X30744Y15097D02*
X30870D01*
X33404D02*
X33558D01*
X30744Y15083D02*
X30870D01*
X33404D02*
X33558D01*
X30744Y15069D02*
X30870D01*
X33404D02*
X33558D01*
X30744Y15055D02*
X30870D01*
X33404D02*
X33558D01*
X30744Y15041D02*
X30870D01*
X33404D02*
X33558D01*
X30744Y15027D02*
X30870D01*
X33404D02*
X33558D01*
X30744Y15013D02*
X30870D01*
X33404D02*
X33558D01*
X30744Y14999D02*
X30870D01*
X33404D02*
X33558D01*
X30744Y14985D02*
X30870D01*
X33404D02*
X33558D01*
X30744Y14971D02*
X30870D01*
X33404D02*
X33558D01*
X30744Y14957D02*
X30870D01*
X33404D02*
X33558D01*
X30744Y14943D02*
X30870D01*
X33404D02*
X33558D01*
X30744Y14929D02*
X30870D01*
X33404D02*
X33558D01*
X30744Y14915D02*
X30870D01*
X33404D02*
X33558D01*
X30744Y14901D02*
X30870D01*
X33404D02*
X33558D01*
X30744Y14887D02*
X30884D01*
X33404D02*
X33558D01*
X30744Y14873D02*
X30884D01*
X33404D02*
X33558D01*
X30744Y14859D02*
X30884D01*
X33404D02*
X33558D01*
X30744Y14845D02*
X30884D01*
X33404D02*
X33558D01*
X30744Y14831D02*
X30884D01*
X33404D02*
X33558D01*
X30730Y14817D02*
X30884D01*
X33404D02*
X33558D01*
X30730Y14803D02*
X30870D01*
X33404D02*
X33558D01*
X30730Y14789D02*
X30870D01*
X33404D02*
X33558D01*
X30730Y14775D02*
X30870D01*
X33404D02*
X33558D01*
X30730Y14761D02*
X30870D01*
X33404D02*
X33558D01*
X30730Y14747D02*
X30870D01*
X33390D02*
X33558D01*
X30730Y14733D02*
X30870D01*
X33390D02*
X33558D01*
X30730Y14719D02*
X30870D01*
X33390D02*
X33558D01*
X30730Y14705D02*
X30870D01*
X33390D02*
X33558D01*
X30730Y14691D02*
X30870D01*
X33390D02*
X33544D01*
X30730Y14677D02*
X30870D01*
X33390D02*
X33544D01*
X30730Y14663D02*
X30870D01*
X33390D02*
X33544D01*
X30730Y14649D02*
X30870D01*
X33390D02*
X33544D01*
X30730Y14635D02*
X30870D01*
X33390D02*
X33544D01*
X30730Y14621D02*
X30870D01*
X33390D02*
X33544D01*
X30730Y14607D02*
X30870D01*
X33390D02*
X33544D01*
X30730Y14593D02*
X30870D01*
X33390D02*
X33544D01*
X30730Y14579D02*
X30870D01*
X33390D02*
X33544D01*
X30730Y14565D02*
X30870D01*
X33390D02*
X33544D01*
X30730Y14551D02*
X30870D01*
X33390D02*
X33544D01*
X30730Y14537D02*
X30870D01*
X33390D02*
X33544D01*
X30730Y14523D02*
X30870D01*
X33390D02*
X33544D01*
X30730Y14509D02*
X30870D01*
X33390D02*
X33544D01*
X30716Y14495D02*
X30870D01*
X33390D02*
X33544D01*
X30716Y14481D02*
X30870D01*
X33390D02*
X33544D01*
X30716Y14467D02*
X30870D01*
X33390D02*
X33544D01*
X30716Y14453D02*
X30870D01*
X30716Y14439D02*
X30870D01*
X30716Y14425D02*
X30870D01*
X30716Y14411D02*
X30870D01*
X30716Y14397D02*
X30870D01*
X30716Y14383D02*
X30870D01*
X30716Y14369D02*
X30870D01*
X30716Y14355D02*
X30870D01*
X30716Y14341D02*
X30870D01*
X30716Y14327D02*
X30870D01*
X30716Y14313D02*
X30870D01*
X30716Y14299D02*
X30898D01*
X30618Y14285D02*
X30968D01*
X33410Y14463D02*
X33536D01*
X30548Y14271D02*
X31038D01*
X33410Y14449D02*
X33536D01*
X30534Y14257D02*
X31094D01*
X33410Y14435D02*
X33536D01*
X30520Y14243D02*
X31136D01*
X33410Y14421D02*
X33536D01*
X30492Y14229D02*
X31178D01*
X33410Y14407D02*
X33522D01*
X30464Y14215D02*
X31220D01*
X33410Y14393D02*
X33522D01*
X30422Y14201D02*
X31262D01*
X33410Y14379D02*
X33522D01*
X30394Y14187D02*
X31290D01*
X33424Y14365D02*
X33522D01*
X30366Y14173D02*
X31318D01*
X33424Y14351D02*
X33522D01*
X30338Y14159D02*
X31360D01*
X33424Y14337D02*
X33522D01*
X30310Y14145D02*
X30632D01*
X30884D02*
X31374D01*
X33424Y14323D02*
X33522D01*
X30296Y14131D02*
X30576D01*
X30940D02*
X31402D01*
X33424Y14309D02*
X33522D01*
X30268Y14117D02*
X30548D01*
X30968D02*
X31416D01*
X33424Y14295D02*
X33522D01*
X30254Y14103D02*
X30520D01*
X30996D02*
X31444D01*
X33424Y14281D02*
X33522D01*
X30240Y14089D02*
X30492D01*
X31010D02*
X31458D01*
X33438Y14267D02*
X33522D01*
X30212Y14075D02*
X30464D01*
X31038D02*
X31486D01*
X30198Y14061D02*
X30436D01*
X31052D02*
X31500D01*
X30184Y14047D02*
X30408D01*
X31066D02*
X31192D01*
X31206D02*
X31514D01*
X30156Y14033D02*
X30380D01*
X31066D02*
X31192D01*
X31248D02*
X31542D01*
X30142Y14019D02*
X30366D01*
X31080D02*
X31192D01*
X31276D02*
X31556D01*
X30128Y14005D02*
X30352D01*
X30800D02*
X30870D01*
X31094D02*
X31206D01*
X31304D02*
X31570D01*
X30114Y13991D02*
X30324D01*
X30786D02*
X30884D01*
X31108D02*
X31206D01*
X31318D02*
X31584D01*
X30086Y13977D02*
X30310D01*
X30772D02*
X30884D01*
X31122D02*
X31206D01*
X31332D02*
X31598D01*
X30086Y13963D02*
X30296D01*
X30772D02*
X30898D01*
X31122D02*
X31206D01*
X31360D02*
X31612D01*
X30072Y13949D02*
X30268D01*
X30758D02*
X30898D01*
X31136D02*
X31206D01*
X31374D02*
X31626D01*
X30058Y13935D02*
X30254D01*
X30758D02*
X30912D01*
X31150D02*
X31192D01*
X31402D02*
X31640D01*
X30044Y13921D02*
X30240D01*
X30758D02*
X30912D01*
X31416D02*
X31654D01*
X30030Y13907D02*
X30226D01*
X30758D02*
X30912D01*
X31430D02*
X31654D01*
X30016Y13893D02*
X30212D01*
X30758D02*
X30912D01*
X31444D02*
X31668D01*
X30002Y13879D02*
X30184D01*
X30758D02*
X30912D01*
X31458D02*
X31682D01*
X30002Y13865D02*
X30184D01*
X30562D02*
X30618D01*
X30646D02*
X30674D01*
X30730D02*
X31052D01*
X31472D02*
X31682D01*
X29988Y13851D02*
X30170D01*
X30548D02*
X31150D01*
X31486D02*
X31696D01*
X29974Y13837D02*
X30156D01*
X30534D02*
X31150D01*
X31514D02*
X31696D01*
X29974Y13823D02*
X30142D01*
X30534D02*
X31164D01*
X31514D02*
X31710D01*
X29960Y13809D02*
X30128D01*
X30520D02*
X31164D01*
X31528D02*
X31724D01*
X29946Y13795D02*
X30128D01*
X30520D02*
X31150D01*
X31542D02*
X31724D01*
X29946Y13781D02*
X30114D01*
X30534D02*
X31150D01*
X31542D02*
X31738D01*
X29932Y13767D02*
X30100D01*
X30534D02*
X31136D01*
X31556D02*
X31738D01*
X29918Y13753D02*
X30100D01*
X30548D02*
X31108D01*
X31570D02*
X31752D01*
X29590Y13650D02*
X29646D01*
X29918Y13739D02*
X30086D01*
X30562D02*
X31080D01*
X31570D02*
X31752D01*
X29576Y13636D02*
X29660D01*
X29904Y13725D02*
X30072D01*
X30618D02*
X31038D01*
X31584D02*
X31766D01*
X29562Y13622D02*
X29660D01*
X29904Y13711D02*
X30072D01*
X30772D02*
X30926D01*
X31584D02*
X31766D01*
X29282Y13608D02*
X29310D01*
X29562D02*
X29660D01*
X29890Y13697D02*
X30058D01*
X30772D02*
X30912D01*
X31598D02*
X31766D01*
X29240Y13594D02*
X29338D01*
X29548D02*
X29660D01*
X29876Y13683D02*
X30044D01*
X30772D02*
X30912D01*
X31598D02*
X31780D01*
X28540Y13580D02*
X28582D01*
X29240D02*
X29352D01*
X29548D02*
X29660D01*
X29876Y13669D02*
X30044D01*
X30772D02*
X30912D01*
X31612D02*
X31780D01*
X28526Y13566D02*
X28596D01*
X29226D02*
X29366D01*
X29548D02*
X29660D01*
X29862Y13655D02*
X30030D01*
X30772D02*
X30912D01*
X31612D02*
X31780D01*
X28512Y13552D02*
X28596D01*
X29226D02*
X29380D01*
X29548D02*
X29660D01*
X29862Y13641D02*
X30030D01*
X30772D02*
X30912D01*
X31612D02*
X31794D01*
X28512Y13538D02*
X28610D01*
X28806D02*
X28890D01*
X29226D02*
X29380D01*
X29534D02*
X29660D01*
X29848Y13627D02*
X30016D01*
X30772D02*
X30898D01*
X31626D02*
X31794D01*
X28512Y13524D02*
X28624D01*
X28778D02*
X28918D01*
X29226D02*
X29394D01*
X29534D02*
X29660D01*
X29848Y13613D02*
X30016D01*
X30772D02*
X30898D01*
X31626D02*
X31808D01*
X28512Y13510D02*
X28624D01*
X28778D02*
X28946D01*
X29226D02*
X29394D01*
X29534D02*
X29646D01*
X29834Y13599D02*
X30002D01*
X30786D02*
X30884D01*
X31640D02*
X31808D01*
X28498Y13496D02*
X28624D01*
X28764D02*
X28960D01*
X29240D02*
X29394D01*
X29520D02*
X29646D01*
X29834Y13585D02*
X30002D01*
X30800D02*
X30870D01*
X31640D02*
X31808D01*
X28498Y13482D02*
X28624D01*
X28764D02*
X28974D01*
X29240D02*
X29394D01*
X29520D02*
X29646D01*
X29820Y13571D02*
X29988D01*
X31640D02*
X31808D01*
X28498Y13468D02*
X28624D01*
X28764D02*
X28988D01*
X29254D02*
X29408D01*
X29506D02*
X29632D01*
X29820Y13557D02*
X29988D01*
X31654D02*
X31822D01*
X28498Y13454D02*
X28624D01*
X28778D02*
X29002D01*
X29254D02*
X29408D01*
X29506D02*
X29632D01*
X29820Y13543D02*
X29974D01*
X31654D02*
X31822D01*
X28498Y13440D02*
X28624D01*
X28778D02*
X29002D01*
X29254D02*
X29408D01*
X29492D02*
X29646D01*
X29806Y13529D02*
X29974D01*
X31654D02*
X31822D01*
X28498Y13426D02*
X28624D01*
X28806D02*
X29016D01*
X29254D02*
X29422D01*
X29492D02*
X29646D01*
X29806Y13515D02*
X29960D01*
X31668D02*
X31822D01*
X28498Y13412D02*
X28638D01*
X28848D02*
X29016D01*
X29254D02*
X29422D01*
X29492D02*
X29646D01*
X29792Y13501D02*
X29960D01*
X31668D02*
X31836D01*
X28498Y13398D02*
X28638D01*
X28862D02*
X29016D01*
X29268D02*
X29422D01*
X29492D02*
X29646D01*
X29792Y13487D02*
X29946D01*
X31668D02*
X31836D01*
X28498Y13384D02*
X28638D01*
X28890D02*
X29030D01*
X29268D02*
X29422D01*
X29492D02*
X29646D01*
X29792Y13473D02*
X29946D01*
X31668D02*
X31836D01*
X28498Y13370D02*
X28638D01*
X28890D02*
X29030D01*
X29268D02*
X29436D01*
X29478D02*
X29646D01*
X29792Y13459D02*
X29946D01*
X31668D02*
X31836D01*
X28498Y13356D02*
X28638D01*
X28904D02*
X29030D01*
X29282D02*
X29436D01*
X29478D02*
X29632D01*
X29778Y13445D02*
X29932D01*
X31682D02*
X31836D01*
X28498Y13342D02*
X28638D01*
X28904D02*
X29044D01*
X29282D02*
X29436D01*
X29478D02*
X29632D01*
X29778Y13431D02*
X29932D01*
X31682D02*
X31850D01*
X28498Y13328D02*
X28638D01*
X28904D02*
X29044D01*
X29282D02*
X29450D01*
X29478D02*
X29632D01*
X29778Y13417D02*
X29932D01*
X31682D02*
X31850D01*
X28498Y13314D02*
X28638D01*
X28904D02*
X29044D01*
X29296D02*
X29450D01*
X29478D02*
X29632D01*
X29778Y13403D02*
X29932D01*
X31682D02*
X31850D01*
X28498Y13300D02*
X28638D01*
X28904D02*
X29044D01*
X29296D02*
X29450D01*
X29464D02*
X29632D01*
X29764Y13389D02*
X29932D01*
X31682D02*
X31850D01*
X28498Y13286D02*
X28638D01*
X28904D02*
X29044D01*
X29296D02*
X29632D01*
X29764Y13375D02*
X29918D01*
X31682D02*
X31850D01*
X28498Y13272D02*
X28638D01*
X28904D02*
X29044D01*
X29310D02*
X29618D01*
X29764Y13361D02*
X29918D01*
X31682D02*
X31850D01*
X28498Y13258D02*
X28638D01*
X28890D02*
X29030D01*
X29310D02*
X29618D01*
X29764Y13347D02*
X29918D01*
X31682D02*
X31850D01*
X28512Y13244D02*
X28638D01*
X28876D02*
X29030D01*
X29310D02*
X29618D01*
X29764Y13333D02*
X29918D01*
X31682D02*
X31850D01*
X28512Y13230D02*
X28652D01*
X28862D02*
X29058D01*
X29324D02*
X29618D01*
X29764Y13319D02*
X29918D01*
X31682D02*
X31850D01*
X28512Y13216D02*
X28652D01*
X28806D02*
X29142D01*
X29324D02*
X29604D01*
X29764Y13305D02*
X29918D01*
X31682D02*
X31850D01*
X28512Y13202D02*
X28652D01*
X28778D02*
X29198D01*
X29324D02*
X29604D01*
X29764Y13291D02*
X29904D01*
X31682D02*
X31850D01*
X28512Y13188D02*
X28652D01*
X28764D02*
X29226D01*
X29338D02*
X29604D01*
X29764Y13277D02*
X29904D01*
X31682D02*
X31850D01*
X28512Y13174D02*
X28652D01*
X28750D02*
X29226D01*
X29338D02*
X29604D01*
X29750Y13263D02*
X29904D01*
X31682D02*
X31850D01*
X28512Y13160D02*
X28652D01*
X28750D02*
X29226D01*
X29352D02*
X29604D01*
X29750Y13249D02*
X29904D01*
X31682D02*
X31850D01*
X28512Y13146D02*
X28652D01*
X28750D02*
X29226D01*
X29352D02*
X29590D01*
X29750Y13235D02*
X29904D01*
X31682D02*
X31836D01*
X28512Y13132D02*
X28652D01*
X28750D02*
X29226D01*
X29366D02*
X29590D01*
X29750Y13221D02*
X29904D01*
X31682D02*
X31836D01*
X28526Y13118D02*
X28652D01*
X28750D02*
X29226D01*
X29380D02*
X29576D01*
X29750Y13207D02*
X29904D01*
X31668D02*
X31836D01*
X28526Y13104D02*
X28652D01*
X28750D02*
X29198D01*
X29394D02*
X29576D01*
X29764Y13193D02*
X29904D01*
X31668D02*
X31836D01*
X28540Y13090D02*
X28638D01*
X28764D02*
X29170D01*
X29408D02*
X29562D01*
X29764Y13179D02*
X29904D01*
X31668D02*
X31836D01*
X28568Y13076D02*
X28624D01*
X28778D02*
X28862D01*
X29450D02*
X29478D01*
X29492D02*
X29534D01*
X29764Y13165D02*
X29918D01*
X31668D02*
X31822D01*
X29764Y13151D02*
X29918D01*
X31668D02*
X31822D01*
X29764Y13137D02*
X29918D01*
X31654D02*
X31822D01*
X29764Y13123D02*
X29918D01*
X31654D02*
X31822D01*
X29764Y13109D02*
X29918D01*
X31654D02*
X31822D01*
X29764Y13095D02*
X29918D01*
X31640D02*
X31822D01*
X29764Y13081D02*
X29932D01*
X31640D02*
X31808D01*
X29764Y13067D02*
X29932D01*
X31626D02*
X31808D01*
X29778Y13053D02*
X29932D01*
X31626D02*
X31794D01*
X29778Y13039D02*
X29946D01*
X31612D02*
X31794D01*
X29778Y13025D02*
X29946D01*
X30604D02*
X30968D01*
X31612D02*
X31780D01*
X29778Y13011D02*
X29960D01*
X30590D02*
X31024D01*
X31598D02*
X31780D01*
X29792Y12997D02*
X29960D01*
X30576D02*
X31038D01*
X31584D02*
X31766D01*
X29792Y12983D02*
X29974D01*
X30576D02*
X31038D01*
X31570D02*
X31766D01*
X29806Y12969D02*
X29974D01*
X30576D02*
X31038D01*
X31570D02*
X31766D01*
X29806Y12955D02*
X29988D01*
X30576D02*
X31038D01*
X31556D02*
X31752D01*
X29806Y12941D02*
X30002D01*
X30576D02*
X31038D01*
X31542D02*
X31752D01*
X29820Y12927D02*
X30016D01*
X30576D02*
X31024D01*
X31528D02*
X31738D01*
X29820Y12913D02*
X30016D01*
X30590D02*
X30996D01*
X31514D02*
X31724D01*
X29834Y12899D02*
X30030D01*
X30604D02*
X30940D01*
X31500D02*
X31710D01*
X29848Y12885D02*
X30044D01*
X30632D02*
X30870D01*
X31486D02*
X31710D01*
X29848Y12871D02*
X30058D01*
X31472D02*
X31696D01*
X29862Y12857D02*
X30072D01*
X31444D02*
X31682D01*
X29876Y12843D02*
X30086D01*
X31430D02*
X31668D01*
X29876Y12829D02*
X30100D01*
X31416D02*
X31668D01*
X29890Y12815D02*
X30114D01*
X31388D02*
X31654D01*
X29904Y12801D02*
X30142D01*
X31374D02*
X31640D01*
X29918Y12787D02*
X30156D01*
X31346D02*
X31612D01*
X29932Y12773D02*
X30170D01*
X31318D02*
X31598D01*
X29946Y12759D02*
X30198D01*
X31290D02*
X31584D01*
X29960Y12745D02*
X30212D01*
X31248D02*
X31570D01*
X29974Y12731D02*
X30254D01*
X31220D02*
X31556D01*
X29988Y12717D02*
X30282D01*
X31178D02*
X31542D01*
X30002Y12703D02*
X30310D01*
X31136D02*
X31514D01*
X30016Y12689D02*
X30352D01*
X31080D02*
X31486D01*
X30030Y12675D02*
X30408D01*
X31038D02*
X31472D01*
X30058Y12661D02*
X30464D01*
X30982D02*
X31444D01*
X30072Y12647D02*
X30534D01*
X30884D02*
X31430D01*
X30086Y12633D02*
X30618D01*
X30716D02*
X31402D01*
X30114Y12619D02*
X31374D01*
X30142Y12605D02*
X31332D01*
X30170Y12591D02*
X31304D01*
X30198Y12577D02*
X31262D01*
X30226Y12563D02*
X31220D01*
X30254Y12549D02*
X31178D01*
X30310Y12535D02*
X31122D01*
X30352Y12521D02*
X31080D01*
X30408Y12507D02*
X31024D01*
X30492Y12493D02*
X30926D01*
X30576Y12479D02*
X30828D01*
X30660Y12465D02*
X30772D01*
X30660Y12451D02*
X30772D01*
X33450Y12333D02*
X33492D01*
X30660Y12437D02*
X30772D01*
X33436Y12319D02*
X33506D01*
X30660Y12423D02*
X30772D01*
X33436Y12305D02*
X33506D01*
X30660Y12409D02*
X30772D01*
X33422Y12291D02*
X33520D01*
X30660Y12395D02*
X30772D01*
X33422Y12277D02*
X33520D01*
X30660Y12381D02*
X30772D01*
X33422Y12263D02*
X33520D01*
X30660Y12367D02*
X30772D01*
X33422Y12249D02*
X33520D01*
X30660Y12353D02*
X30772D01*
X33422Y12235D02*
X33520D01*
X30660Y12339D02*
X30772D01*
X33422Y12221D02*
X33520D01*
X30660Y12325D02*
X30772D01*
X33422Y12207D02*
X33520D01*
X30660Y12311D02*
X30772D01*
X33422Y12193D02*
X33520D01*
X30660Y12297D02*
X30772D01*
X33422Y12179D02*
X33520D01*
X30660Y12283D02*
X30772D01*
X33422Y12165D02*
X33520D01*
X30660Y12269D02*
X30772D01*
X33422Y12151D02*
X33534D01*
X30660Y12255D02*
X30772D01*
X33408Y12137D02*
X33534D01*
X30660Y12241D02*
X30772D01*
X30660Y12227D02*
X30772D01*
X30660Y12213D02*
X30772D01*
X30646Y12199D02*
X30772D01*
X30646Y12185D02*
X30772D01*
X30646Y12171D02*
X30772D01*
X30646Y12157D02*
X30772D01*
X30646Y12143D02*
X30772D01*
X30646Y12129D02*
X30772D01*
X33418D02*
X33544D01*
X30646Y12115D02*
X30758D01*
X33418D02*
X33544D01*
X30646Y12101D02*
X30758D01*
X33418D02*
X33544D01*
X30646Y12087D02*
X30758D01*
X33418D02*
X33544D01*
X30646Y12073D02*
X30758D01*
X33418D02*
X33544D01*
X30646Y12059D02*
X30758D01*
X33418D02*
X33544D01*
X30646Y12045D02*
X30758D01*
X33418D02*
X33544D01*
X30646Y12031D02*
X30758D01*
X33418D02*
X33544D01*
X30646Y12017D02*
X30758D01*
X33418D02*
X33544D01*
X30646Y12003D02*
X30758D01*
X33418D02*
X33544D01*
X30646Y11989D02*
X30758D01*
X33418D02*
X33544D01*
X30646Y11975D02*
X30758D01*
X33418D02*
X33544D01*
X30646Y11961D02*
X30758D01*
X33418D02*
X33544D01*
X30646Y11947D02*
X30758D01*
X33418D02*
X33544D01*
X30632Y11933D02*
X30758D01*
X33418D02*
X33558D01*
X30632Y11919D02*
X30758D01*
X33418D02*
X33558D01*
X30632Y11905D02*
X30758D01*
X33418D02*
X33558D01*
X30632Y11891D02*
X30758D01*
X33418D02*
X33558D01*
X30632Y11877D02*
X30758D01*
X33418D02*
X33558D01*
X30632Y11863D02*
X30758D01*
X33418D02*
X33558D01*
X30632Y11849D02*
X30758D01*
X33418D02*
X33558D01*
X30632Y11835D02*
X30758D01*
X33418D02*
X33558D01*
X30632Y11821D02*
X30758D01*
X33418D02*
X33558D01*
X30632Y11807D02*
X30758D01*
X33418D02*
X33558D01*
X30618Y11793D02*
X30758D01*
X33418D02*
X33558D01*
X30618Y11779D02*
X30744D01*
X33418D02*
X33558D01*
X30632Y11765D02*
X30744D01*
X33418D02*
X33558D01*
X30632Y11751D02*
X30744D01*
X33418D02*
X33558D01*
X30632Y11737D02*
X30744D01*
X33418D02*
X33558D01*
X30632Y11723D02*
X30744D01*
X33418D02*
X33558D01*
X30632Y11709D02*
X30744D01*
X33418D02*
X33558D01*
X30632Y11695D02*
X30744D01*
X33418D02*
X33558D01*
X30632Y11681D02*
X30744D01*
X33418D02*
X33558D01*
X30632Y11667D02*
X30744D01*
X33418D02*
X33558D01*
X30632Y11653D02*
X30744D01*
X33418D02*
X33558D01*
X30632Y11639D02*
X30744D01*
X33418D02*
X33558D01*
X30632Y11625D02*
X30744D01*
X33418D02*
X33558D01*
X30632Y11611D02*
X30744D01*
X33418D02*
X33558D01*
X30632Y11597D02*
X30744D01*
X33418D02*
X33558D01*
X30632Y11583D02*
X30744D01*
X33418D02*
X33558D01*
X30632Y11569D02*
X30744D01*
X33418D02*
X33558D01*
X30632Y11555D02*
X30744D01*
X33418D02*
X33558D01*
X30618Y11541D02*
X30744D01*
X33418D02*
X33558D01*
X30618Y11527D02*
X30744D01*
X33418D02*
X33558D01*
X30618Y11513D02*
X30730D01*
X33418D02*
X33558D01*
X30618Y11499D02*
X30730D01*
X33418D02*
X33558D01*
X30618Y11485D02*
X30730D01*
X33418D02*
X33558D01*
X30618Y11471D02*
X30730D01*
X33418D02*
X33558D01*
X30618Y11457D02*
X30730D01*
X33418D02*
X33558D01*
X30618Y11443D02*
X30730D01*
X33418D02*
X33558D01*
X30632Y11429D02*
X30730D01*
X33418D02*
X33558D01*
X30632Y11415D02*
X30730D01*
X33418D02*
X33558D01*
X30632Y11401D02*
X30828D01*
X33418D02*
X33558D01*
X30632Y11387D02*
X31556D01*
X33418D02*
X33558D01*
X30646Y11373D02*
X31990D01*
X33418D02*
X33558D01*
X30660Y11359D02*
X32606D01*
X33418D02*
X33572D01*
X30660Y11345D02*
X33348D01*
X33418D02*
X33572D01*
X30674Y11331D02*
X33572D01*
X30702Y11317D02*
X33572D01*
X30758Y11303D02*
X33572D01*
X30800Y11289D02*
X33572D01*
X30884Y11275D02*
X33572D01*
X31290Y11261D02*
X33572D01*
X31598Y11247D02*
X33572D01*
X31976Y11233D02*
X33572D01*
X32578Y11219D02*
X33572D01*
X32718Y11205D02*
X33572D01*
X33446Y11191D02*
X33572D01*
X33482Y11181D02*
X33524D01*
M02*
